<?xml version="1.0" standalone="no"?>
<!DOCTYPE svg PUBLIC "-//W3C//DTD SVG 20010904//EN"
 "http://www.w3.org/TR/2001/REC-SVG-20010904/DTD/svg10.dtd">
<svg version="1.0" xmlns="http://www.w3.org/2000/svg"
 width="833.000000pt" height="833.000000pt" viewBox="0 0 833.000000 833.000000"
 preserveAspectRatio="xMidYMid meet">
<metadata>
Created by potrace 1.11, written by Peter Selinger 2001-2013
</metadata>
<g transform="translate(0.000000,833.000000) scale(0.100000,-0.100000)"
fill="#000000" stroke="none">
<path d="M6880 8323 c-56 -9 -159 -47 -225 -81 -135 -70 -272 -233 -324 -385
-117 -339 34 -708 356 -871 115 -58 291 -84 423 -64 257 41 479 229 564 480
23 69 27 93 31 193 17 404 -298 732 -705 733 -52 0 -106 -2 -120 -5z"/>
<path d="M4077 6624 c-1 -1 -60 -4 -132 -8 -71 -3 -141 -8 -155 -10 -14 -3
-52 -7 -85 -11 -174 -19 -460 -84 -660 -150 -310 -103 -669 -282 -905 -452
-65 -47 -217 -163 -235 -180 -11 -10 -52 -45 -90 -78 -388 -336 -713 -789
-924 -1286 -68 -162 -177 -509 -196 -624 -2 -11 -13 -72 -24 -135 -39 -228
-46 -314 -46 -600 0 -203 7 -359 20 -442 2 -13 6 -45 10 -71 4 -27 8 -57 10
-67 2 -9 6 -33 9 -51 9 -56 16 -88 32 -158 9 -36 17 -73 19 -82 2 -9 20 -72
40 -140 193 -647 568 -1226 1080 -1668 261 -224 424 -328 605 -383 l75 -23
1605 -2 c1715 -3 1649 -4 1790 45 133 47 248 118 442 274 131 105 175 145 306
276 282 284 502 593 667 937 88 184 97 205 148 345 38 105 50 142 72 220 1 3
9 30 18 60 14 50 53 229 77 355 5 28 12 77 15 110 4 33 8 71 11 85 22 122 21
610 0 755 -3 17 -7 53 -10 80 -3 28 -8 59 -10 70 -2 11 -7 42 -10 68 -9 59
-10 65 -30 148 -8 37 -17 78 -20 90 -52 257 -239 710 -406 984 -71 116 -186
283 -242 350 -290 352 -522 566 -843 779 -166 110 -245 155 -415 238 -319 154
-681 267 -1005 313 -22 3 -53 8 -70 10 -88 14 -526 38 -538 29z m295 -1428
c32 -3 68 -8 80 -10 13 -3 39 -8 58 -11 176 -26 389 -94 575 -185 426 -208
774 -557 980 -985 55 -114 135 -325 149 -396 5 -27 23 -114 30 -145 2 -12 7
-45 11 -75 4 -29 10 -74 14 -99 18 -113 -1 -480 -33 -625 -27 -126 -69 -267
-100 -340 -7 -16 -19 -46 -26 -65 -49 -128 -193 -367 -307 -510 -72 -89 -221
-237 -318 -314 -538 -431 -1217 -573 -1884 -395 -347 92 -673 280 -932 539
-125 125 -181 192 -271 325 -180 268 -280 528 -343 890 -26 154 -21 495 10
645 3 14 8 39 11 55 52 293 208 633 413 899 56 72 246 266 321 328 164 135
394 270 575 337 33 13 76 29 95 37 99 39 344 90 485 100 44 4 81 7 82 9 5 4
269 -3 325 -9z"/>
</g>
</svg>
