<?xml version="1.0" encoding="UTF-8" standalone="no"?>
<svg
   xmlns:dc="http://purl.org/dc/elements/1.1/"
   xmlns:cc="http://creativecommons.org/ns#"
   xmlns:rdf="http://www.w3.org/1999/02/22-rdf-syntax-ns#"
   xmlns:svg="http://www.w3.org/2000/svg"
   xmlns="http://www.w3.org/2000/svg"
   id="svg8063"
   version="1.1"
   viewBox="0 0 63.499999 63.500002"
   height="240"
   width="240">
  <defs
     id="defs8057" />
  <metadata
     id="metadata8060">
    <rdf:RDF>
      <cc:Work
         rdf:about="">
        <dc:format>image/svg+xml</dc:format>
        <dc:type
           rdf:resource="http://purl.org/dc/dcmitype/StillImage" />
        <dc:title></dc:title>
      </cc:Work>
    </rdf:RDF>
  </metadata>
  <g
     transform="translate(0,-233.49998)"
     id="layer1">
    <g
       id="g8680">
      <path
         style="opacity:1;fill:#6cdea0;fill-opacity:1;stroke:none;stroke-width:4.82665586;stroke-linecap:round;stroke-linejoin:round;stroke-miterlimit:4;stroke-dasharray:none;stroke-dashoffset:0;stroke-opacity:1"
         d="M 1.9261445e-6,279.51825 46.018271,233.49999 l 17.481732,3e-5 L 4.2946535e-5,296.99998 Z"
         id="rect1824" />
      <g
         aria-label="Coming Soon"
         transform="rotate(-45)"
         style="font-style:normal;font-variant:normal;font-weight:normal;font-stretch:normal;font-size:7.06918955px;line-height:1.25;font-family:Papyrus;-inkscape-font-specification:Papyrus;letter-spacing:0px;word-spacing:0px;fill:#ffffff;fill-opacity:1;stroke:none;stroke-width:0.17672972"
         id="text1828">
        <path
           d="m -194.55546,206.57845 v -0.78528 h 3.92637 v 0.78528 z m 3.92637,-0.78528 v -0.78527 h 0.78528 v 0.78527 z m -4.71164,0 v -4.71164 h 0.78527 v 4.71164 z m 4.71164,-3.92637 v -0.78527 h 0.78528 v 0.78527 z m -3.92637,-0.78527 v -0.78527 h 3.92637 v 0.78527 z"
           style="font-style:normal;font-variant:normal;font-weight:normal;font-stretch:normal;font-family:'Epson Pixeled';-inkscape-font-specification:'Epson Pixeled';fill:#ffffff;stroke-width:0.17672972"
           id="path8647" />
        <path
           d="m -188.27327,206.57845 v -0.78528 h 3.1411 v 0.78528 z m -0.78527,-0.78528 v -3.14109 h 0.78527 v 3.14109 z m 3.92637,0 v -3.14109 h 0.78527 v 3.14109 z m -3.1411,-3.14109 v -0.78528 h 3.1411 v 0.78528 z"
           style="font-style:normal;font-variant:normal;font-weight:normal;font-stretch:normal;font-family:'Epson Pixeled';-inkscape-font-specification:'Epson Pixeled';fill:#ffffff;stroke-width:0.17672972"
           id="path8649" />
        <path
           d="m -183.56335,206.57845 v -0.78528 h 0.78527 v -3.14109 h 0.78528 v 3.92637 z m 2.35582,0 v -3.92637 h 0.78528 v 3.92637 z m 1.57055,0 v -3.92637 h 0.78527 v 3.14109 h 0.78528 v 0.78528 z m -3.92637,-3.92637 v -0.78528 h 0.78527 v 0.78528 z m 1.57055,0 v -0.78528 h 0.78527 v 0.78528 z m 1.57055,0 v -0.78528 h 0.78527 v 0.78528 z"
           style="font-style:normal;font-variant:normal;font-weight:normal;font-stretch:normal;font-family:'Epson Pixeled';-inkscape-font-specification:'Epson Pixeled';fill:#ffffff;stroke-width:0.17672972"
           id="path8651" />
        <path
           d="m -177.28116,206.57845 v -0.78528 h 0.78528 v -3.14109 h -0.78528 v -0.78528 h 2.35582 v 0.78528 h -0.78527 v 3.14109 h 0.78527 v 0.78528 z m 0.78528,-5.49692 v -0.78527 h 0.78527 v 0.78527 z"
           style="font-style:normal;font-variant:normal;font-weight:normal;font-stretch:normal;font-family:'Epson Pixeled';-inkscape-font-specification:'Epson Pixeled';fill:#ffffff;stroke-width:0.17672972"
           id="path8653" />
        <path
           d="m -170.20679,206.57845 v -3.92637 h 0.78527 v 3.14109 h 0.78528 v 0.78528 z m -3.92637,0 v -0.78528 h 0.78527 v -3.14109 h -0.78527 v -0.78528 h 1.57055 v 0.78528 h 0.78527 v 0.78527 h -0.78527 v 2.35582 h 0.78527 v 0.78528 z m 2.35582,-3.92637 v -0.78528 h 1.57055 v 0.78528 z"
           style="font-style:normal;font-variant:normal;font-weight:normal;font-stretch:normal;font-family:'Epson Pixeled';-inkscape-font-specification:'Epson Pixeled';fill:#ffffff;stroke-width:0.17672972"
           id="path8655" />
        <path
           d="m -167.0657,207.36372 v -0.78527 h 3.92637 v 0.78527 z m -0.78527,-0.78527 v -0.78528 h 0.78527 v 0.78528 z m 0,-2.35583 v -1.57054 h 0.78527 v 1.57054 z m 0.78527,-1.57054 v -0.78528 h 3.1411 v 0.78528 z m 3.92637,3.92637 v -1.57055 h -3.92637 v -0.78528 h 3.92637 v -0.78527 h -0.78527 v -0.78527 h 0.78527 v -0.78528 h 0.78527 v 4.71165 z"
           style="font-style:normal;font-variant:normal;font-weight:normal;font-stretch:normal;font-family:'Epson Pixeled';-inkscape-font-specification:'Epson Pixeled';fill:#ffffff;stroke-width:0.17672972"
           id="path8657" />
        <path
           d="m -156.86232,206.57845 v -0.78528 h 3.92637 v 0.78528 z m -0.78527,-0.78528 v -0.78527 h 0.78527 v 0.78527 z m 4.71164,0 v -1.57055 h 0.78528 v 1.57055 z m -3.14109,-1.57055 v -0.78527 h 3.14109 v 0.78527 z m -0.78528,-0.78527 v -0.78527 h 0.78528 v 0.78527 z m -0.78527,-0.78527 v -1.57055 h 0.78527 v 1.57055 z m 4.71164,-0.78528 v -0.78527 h 0.78528 v 0.78527 z m -3.92637,-0.78527 v -0.78527 h 3.92637 v 0.78527 z"
           style="font-style:normal;font-variant:normal;font-weight:normal;font-stretch:normal;font-family:'Epson Pixeled';-inkscape-font-specification:'Epson Pixeled';fill:#ffffff;stroke-width:0.17672972"
           id="path8659" />
        <path
           d="m -150.58012,206.57845 v -0.78528 h 3.14109 v 0.78528 z m -0.78528,-0.78528 v -3.14109 h 0.78528 v 3.14109 z m 3.92637,0 v -3.14109 h 0.78527 v 3.14109 z m -3.14109,-3.14109 v -0.78528 h 3.14109 v 0.78528 z"
           style="font-style:normal;font-variant:normal;font-weight:normal;font-stretch:normal;font-family:'Epson Pixeled';-inkscape-font-specification:'Epson Pixeled';fill:#ffffff;stroke-width:0.17672972"
           id="path8661" />
        <path
           d="m -145.08493,206.57845 v -0.78528 h 3.14109 v 0.78528 z m -0.78528,-0.78528 v -3.14109 h 0.78528 v 3.14109 z m 3.92637,0 v -3.14109 h 0.78527 v 3.14109 z m -3.14109,-3.14109 v -0.78528 h 3.14109 v 0.78528 z"
           style="font-style:normal;font-variant:normal;font-weight:normal;font-stretch:normal;font-family:'Epson Pixeled';-inkscape-font-specification:'Epson Pixeled';fill:#ffffff;stroke-width:0.17672972"
           id="path8663" />
        <path
           d="m -136.44865,206.57845 v -3.92637 h 0.78527 v 3.14109 h 0.78528 v 0.78528 z m -3.92637,0 v -0.78528 h 0.78527 v -3.14109 h -0.78527 v -0.78528 h 1.57055 v 0.78528 h 0.78527 v 0.78527 h -0.78527 v 2.35582 h 0.78527 v 0.78528 z m 2.35582,-3.92637 v -0.78528 h 1.57055 v 0.78528 z"
           style="font-style:normal;font-variant:normal;font-weight:normal;font-stretch:normal;font-family:'Epson Pixeled';-inkscape-font-specification:'Epson Pixeled';fill:#ffffff;stroke-width:0.17672972"
           id="path8665" />
      </g>
    </g>
  </g>
</svg>
