<?xml version="1.0" encoding="UTF-8" standalone="no"?>
<svg
   xmlns:dc="http://purl.org/dc/elements/1.1/"
   xmlns:cc="http://creativecommons.org/ns#"
   xmlns:rdf="http://www.w3.org/1999/02/22-rdf-syntax-ns#"
   xmlns:svg="http://www.w3.org/2000/svg"
   xmlns="http://www.w3.org/2000/svg"
   width="298"
   height="33"
   viewBox="0 0 78.845832 8.7312502"
   version="1.1"
   id="svg4036">
  <defs
     id="defs4030" />
  <metadata
     id="metadata4033">
    <rdf:RDF>
      <cc:Work
         rdf:about="">
        <dc:format>image/svg+xml</dc:format>
        <dc:type
           rdf:resource="http://purl.org/dc/dcmitype/StillImage" />
        <dc:title></dc:title>
      </cc:Work>
    </rdf:RDF>
  </metadata>
  <g
     id="layer1"
     transform="translate(0,-288.26873)">
    <g
       id="text8219-6-5-06-4-1-0-1-8-1"
       style="font-style:normal;font-weight:normal;font-size:9.70463085px;line-height:1.25;font-family:sans-serif;letter-spacing:0px;word-spacing:0px;fill:#6cdea0;fill-opacity:1;stroke:none;stroke-width:0.24261574"
       aria-label="SerialTransport">
      <path
         id="path815"
         style="font-style:normal;font-variant:normal;font-weight:normal;font-stretch:normal;font-family:Consolas;-inkscape-font-specification:Consolas;fill:#6cdea0;fill-opacity:1;stroke-width:0.24261574"
         d="m 4.1983901,293.3797 q 0,0.44069 -0.1800664,0.77239 -0.1800664,0.3317 -0.5022904,0.55441 -0.3222241,0.21798 -0.7771287,0.32697 -0.450166,0.10898 -0.9951037,0.10898 -0.2464067,0 -0.4928133,-0.019 -0.2416681,-0.0189 -0.46912035,-0.0474 -0.2227137,-0.0284 -0.42173445,-0.0663 Q 0.16111205,294.97186 1.7229468e-8,294.92922 v -0.81504 Q 0.35539421,294.24686 0.79608302,294.32268 q 0.44542738,0.0758 1.00931948,0.0758 0.4075187,0 0.6918341,-0.0616 0.2890539,-0.0663 0.4691203,-0.18954 0.184805,-0.12794 0.265361,-0.30801 0.085295,-0.18006 0.085295,-0.41226 0,-0.25114 -0.1421577,-0.42647 -0.1374191,-0.18006 -0.3648713,-0.31748 -0.2274523,-0.14216 -0.5212449,-0.25589 -0.2890539,-0.11846 -0.5923236,-0.24167 -0.3032697,-0.1232 -0.5970623,-0.26536 -0.28905392,-0.14689 -0.5165062,-0.34118 -0.22745229,-0.19902 -0.36960997,-0.46438 -0.13741908,-0.26536 -0.13741908,-0.63023 0,-0.31748 0.1326805,-0.62549 0.1326805,-0.30801 0.41225726,-0.54494 0.27957677,-0.24167 0.71552699,-0.38857 0.4406888,-0.14689 1.0472282,-0.14689 0.1563735,0 0.3364399,0.0142 0.1848049,0.0142 0.3696099,0.0427 0.1895436,0.0237 0.36961,0.0569 0.184805,0.0332 0.3411784,0.0711 v 0.75818 q -0.3648714,-0.10425 -0.7297427,-0.15638 -0.3648714,-0.0569 -0.7060498,-0.0569 -0.7250042,0 -1.0661826,0.24167 -0.34117845,0.24167 -0.34117845,0.64919 0,0.25114 0.13741905,0.43121 0.1421577,0.18006 0.36961,0.32222 0.2274523,0.14216 0.5165062,0.26062 0.2937926,0.11373 0.5970623,0.23693 0.3032697,0.12321 0.5923236,0.2701 0.2937926,0.1469 0.5212449,0.35066 0.2274523,0.19902 0.3648713,0.46912 0.1421577,0.2701 0.1421577,0.63971 z" />
      <path
         id="path817"
         style="font-style:normal;font-variant:normal;font-weight:normal;font-stretch:normal;font-family:Consolas;-inkscape-font-specification:Consolas;fill:#6cdea0;fill-opacity:1;stroke-width:0.24261574"
         d="m 9.5956431,292.42724 q 0,0.17533 -0.00474,0.29379 -0.00474,0.11847 -0.014216,0.22272 H 6.2359833 q 0,0.72974 0.4075187,1.12304 0.4075187,0.38857 1.1751702,0.38857 0.2084979,0 0.4169958,-0.0142 0.2084979,-0.019 0.4027801,-0.0474 0.1942822,-0.0284 0.36961,-0.0616 0.1800664,-0.0379 0.3317012,-0.0806 v 0.67762 q -0.3364398,0.0948 -0.7629129,0.15163 -0.4217344,0.0616 -0.876639,0.0616 -0.611278,0 -1.0519668,-0.16585 -0.4406888,-0.16585 -0.7250042,-0.47859 -0.2795767,-0.31749 -0.4169958,-0.77239 -0.1326805,-0.45965 -0.1326805,-1.03776 0,-0.50229 0.1421577,-0.94771 0.1468962,-0.45017 0.4217344,-0.78661 0.2795768,-0.34118 0.6823569,-0.5402 0.4027801,-0.19902 0.9145477,-0.19902 0.4975519,0 0.8813776,0.15637 0.3838257,0.15638 0.6444482,0.44543 0.265361,0.28432 0.3980415,0.69657 0.137419,0.40752 0.137419,0.91455 z m -0.8576846,-0.11846 q 0.014216,-0.31749 -0.061602,-0.57811 -0.075817,-0.26536 -0.2369294,-0.4549 -0.1563735,-0.18955 -0.393303,-0.2938 -0.2369294,-0.10898 -0.5496763,-0.10898 -0.2700996,0 -0.4928133,0.10424 -0.2227137,0.10425 -0.3838257,0.2938 -0.1611121,0.18954 -0.2606224,0.4549 -0.09951,0.26536 -0.1232034,0.58285 z" />
      <path
         id="path819"
         style="font-style:normal;font-variant:normal;font-weight:normal;font-stretch:normal;font-family:Consolas;-inkscape-font-specification:Consolas;fill:#6cdea0;fill-opacity:1;stroke-width:0.24261574"
         d="m 11.11673,290.29962 h 0.753436 l 0.02369,0.87663 q 0.421734,-0.50702 0.829253,-0.73448 0.412257,-0.22745 0.829253,-0.22745 0.73922,0 1.118307,0.4786 0.383826,0.4786 0.355394,1.42158 h -0.833991 q 0.01421,-0.6255 -0.184805,-0.90508 -0.194283,-0.28431 -0.57337,-0.28431 -0.16585,0 -0.33644,0.0616 -0.16585,0.0569 -0.345917,0.18954 -0.175327,0.12795 -0.374348,0.33171 -0.199021,0.20376 -0.426473,0.49281 v 3.05639 H 11.11673 Z" />
      <path
         id="path821"
         style="font-style:normal;font-variant:normal;font-weight:normal;font-stretch:normal;font-family:Consolas;-inkscape-font-specification:Consolas;fill:#6cdea0;fill-opacity:1;stroke-width:0.24261574"
         d="m 17.888174,290.98197 h -1.407361 v -0.68235 h 2.241352 v 4.07044 h 1.416838 v 0.6871 h -3.814564 v -0.6871 h 1.563735 z m 0.289054,-2.6773 q 0.137419,0 0.255883,0.0521 0.118465,0.0474 0.20376,0.13742 0.09003,0.09 0.137419,0.2085 0.05212,0.11373 0.05212,0.25115 0,0.13268 -0.05212,0.25114 -0.04739,0.11847 -0.137419,0.2085 -0.08529,0.09 -0.20376,0.14216 -0.118464,0.0474 -0.255883,0.0474 -0.13742,0 -0.255884,-0.0474 -0.118465,-0.0521 -0.208498,-0.14216 -0.08529,-0.09 -0.137419,-0.2085 -0.04739,-0.11846 -0.04739,-0.25114 0,-0.13742 0.04739,-0.25115 0.05212,-0.11846 0.137419,-0.2085 0.09003,-0.09 0.208498,-0.13742 0.118464,-0.0521 0.255884,-0.0521 z" />
      <path
         id="path823"
         style="font-style:normal;font-variant:normal;font-weight:normal;font-stretch:normal;font-family:Consolas;-inkscape-font-specification:Consolas;fill:#6cdea0;fill-opacity:1;stroke-width:0.24261574"
         d="m 24.669095,295.05716 -0.01895,-0.63971 q -0.388565,0.38383 -0.791345,0.55441 -0.398041,0.17059 -0.83873,0.17059 -0.407519,0 -0.696573,-0.10424 -0.289054,-0.10425 -0.478597,-0.28432 -0.184805,-0.18481 -0.274838,-0.43121 -0.08529,-0.24641 -0.08529,-0.53546 0,-0.71553 0.530722,-1.11831 0.535461,-0.40752 1.57795,-0.40752 h 0.985627 v -0.41699 q 0,-0.42174 -0.2701,-0.67288 -0.270099,-0.25589 -0.824514,-0.25589 -0.40278,0 -0.796083,0.09 -0.388565,0.09 -0.80556,0.25588 v -0.74396 q 0.156373,-0.0569 0.345917,-0.10899 0.194282,-0.0569 0.407518,-0.0995 0.213237,-0.0426 0.445428,-0.0663 0.232191,-0.0284 0.46912,-0.0284 0.431212,0 0.777129,0.0948 0.345917,0.0948 0.582846,0.28906 0.241668,0.19428 0.36961,0.48807 0.127942,0.29379 0.127942,0.69184 v 3.2791 z m -0.09003,-2.16554 h -1.047228 q -0.308009,0 -0.530722,0.0616 -0.222714,0.0616 -0.364872,0.17532 -0.142157,0.11373 -0.213236,0.27484 -0.06634,0.15638 -0.06634,0.3554 0,0.13742 0.04265,0.26536 0.04265,0.1232 0.137419,0.22271 0.09477,0.0948 0.246407,0.15164 0.151634,0.0569 0.36961,0.0569 0.284315,0 0.649186,-0.17059 0.36961,-0.17533 0.777129,-0.54968 z" />
      <path
         id="path825"
         style="font-style:normal;font-variant:normal;font-weight:normal;font-stretch:normal;font-family:Consolas;-inkscape-font-specification:Consolas;fill:#6cdea0;fill-opacity:1;stroke-width:0.24261574"
         d="m 28.578432,289.03915 h -1.407361 v -0.67762 h 2.241352 v 6.00853 h 1.416838 v 0.6871 h -3.814564 v -0.6871 h 1.563735 z" />
      <path
         id="path827"
         style="font-style:normal;font-variant:normal;font-weight:normal;font-stretch:normal;font-family:Consolas;-inkscape-font-specification:Consolas;fill:#6cdea0;fill-opacity:1;stroke-width:0.24261574"
         d="m 36.47292,289.58409 h -1.833834 v 5.47307 H 33.78614 v -5.47307 h -1.833834 v -0.72027 h 4.520614 z" />
      <path
         id="path829"
         style="font-style:normal;font-variant:normal;font-weight:normal;font-stretch:normal;font-family:Consolas;-inkscape-font-specification:Consolas;fill:#6cdea0;fill-opacity:1;stroke-width:0.24261574"
         d="m 37.842374,290.29962 h 0.753436 l 0.02369,0.87663 q 0.421734,-0.50702 0.829253,-0.73448 0.412257,-0.22745 0.829253,-0.22745 0.73922,0 1.118307,0.4786 0.383826,0.4786 0.355394,1.42158 h -0.833991 q 0.01422,-0.6255 -0.184805,-0.90508 -0.194282,-0.28431 -0.57337,-0.28431 -0.16585,0 -0.336439,0.0616 -0.165851,0.0569 -0.345917,0.18954 -0.175328,0.12795 -0.374349,0.33171 -0.199021,0.20376 -0.426473,0.49281 v 3.05639 h -0.833992 z" />
      <path
         id="path831"
         style="font-style:normal;font-variant:normal;font-weight:normal;font-stretch:normal;font-family:Consolas;-inkscape-font-specification:Consolas;fill:#6cdea0;fill-opacity:1;stroke-width:0.24261574"
         d="m 46.049609,295.05716 -0.01895,-0.63971 q -0.388564,0.38383 -0.791344,0.55441 -0.398042,0.17059 -0.838731,0.17059 -0.407518,0 -0.696572,-0.10424 -0.289054,-0.10425 -0.478598,-0.28432 -0.184805,-0.18481 -0.274838,-0.43121 -0.0853,-0.24641 -0.0853,-0.53546 0,-0.71553 0.530722,-1.11831 0.535461,-0.40752 1.577951,-0.40752 h 0.985626 v -0.41699 q 0,-0.42174 -0.2701,-0.67288 -0.270099,-0.25589 -0.824514,-0.25589 -0.40278,0 -0.796083,0.09 -0.388564,0.09 -0.80556,0.25588 v -0.74396 q 0.156373,-0.0569 0.345917,-0.10899 0.194282,-0.0569 0.407518,-0.0995 0.213237,-0.0426 0.445428,-0.0663 0.232191,-0.0284 0.46912,-0.0284 0.431212,0 0.777129,0.0948 0.345917,0.0948 0.582846,0.28906 0.241668,0.19428 0.36961,0.48807 0.127942,0.29379 0.127942,0.69184 v 3.2791 z m -0.09003,-2.16554 h -1.047228 q -0.308008,0 -0.530722,0.0616 -0.222714,0.0616 -0.364872,0.17532 -0.142157,0.11373 -0.213236,0.27484 -0.06634,0.15638 -0.06634,0.3554 0,0.13742 0.04265,0.26536 0.04265,0.1232 0.137419,0.22271 0.09477,0.0948 0.246407,0.15164 0.151635,0.0569 0.36961,0.0569 0.284315,0 0.649186,-0.17059 0.36961,-0.17533 0.777129,-0.54968 z" />
      <path
         id="path833"
         style="font-style:normal;font-variant:normal;font-weight:normal;font-stretch:normal;font-family:Consolas;-inkscape-font-specification:Consolas;fill:#6cdea0;fill-opacity:1;stroke-width:0.24261574"
         d="m 48.338346,290.29962 h 0.734482 l 0.03317,0.76765 q 0.208498,-0.24641 0.40278,-0.40752 0.194282,-0.16585 0.379087,-0.26536 0.189544,-0.0995 0.383826,-0.13742 0.194282,-0.0427 0.40278,-0.0427 0.734481,0 1.10883,0.43595 0.379087,0.43121 0.379087,1.30311 v 3.10378 h -0.824515 v -3.03744 q 0,-0.55915 -0.208498,-0.82451 -0.208498,-0.2701 -0.620755,-0.2701 -0.151635,0 -0.298531,0.0474 -0.142158,0.0426 -0.298531,0.15637 -0.156374,0.10899 -0.341178,0.29853 -0.180067,0.18954 -0.407519,0.47386 v 3.1559 h -0.824515 z" />
      <path
         id="path835"
         style="font-style:normal;font-variant:normal;font-weight:normal;font-stretch:normal;font-family:Consolas;-inkscape-font-specification:Consolas;fill:#6cdea0;fill-opacity:1;stroke-width:0.24261574"
         d="m 57.450656,293.75879 q 0,0.25114 -0.0853,0.45016 -0.0853,0.19902 -0.232191,0.3554 -0.146896,0.15163 -0.341178,0.26062 -0.194282,0.10899 -0.416996,0.18006 -0.217975,0.0711 -0.450166,0.10425 -0.232191,0.0332 -0.454905,0.0332 -0.483336,0 -0.890854,-0.0426 -0.402781,-0.0426 -0.791345,-0.13742 v -0.75818 q 0.416996,0.11847 0.829253,0.18007 0.412258,0.0616 0.819776,0.0616 0.592324,0 0.876639,-0.16111 0.284316,-0.16111 0.284316,-0.45964 0,-0.12795 -0.04739,-0.22746 -0.04265,-0.10425 -0.161112,-0.19428 -0.118465,-0.0948 -0.36961,-0.19428 -0.246407,-0.0995 -0.677619,-0.22745 -0.322224,-0.0948 -0.597062,-0.21324 -0.270099,-0.1232 -0.46912,-0.28905 -0.199021,-0.16585 -0.312747,-0.38857 -0.113726,-0.22271 -0.113726,-0.52598 0,-0.19902 0.09003,-0.43595 0.09477,-0.23693 0.317486,-0.44069 0.222713,-0.20376 0.6018,-0.33644 0.379087,-0.13742 0.947718,-0.13742 0.279577,0 0.620755,0.0332 0.341179,0.0284 0.710789,0.10425 v 0.73448 q -0.388565,-0.0948 -0.73922,-0.13742 -0.345917,-0.0474 -0.601801,-0.0474 -0.308008,0 -0.521245,0.0474 -0.208498,0.0474 -0.341178,0.13268 -0.127942,0.0806 -0.184805,0.19429 -0.05686,0.10898 -0.05686,0.23692 0,0.12795 0.04739,0.2322 0.05212,0.10424 0.184805,0.20375 0.137419,0.0948 0.379087,0.19429 0.241668,0.0948 0.630232,0.20849 0.421735,0.12321 0.710789,0.26063 0.289053,0.13268 0.46912,0.29853 0.180066,0.16585 0.255884,0.37435 0.08056,0.20849 0.08056,0.47386 z" />
      <path
         id="path837"
         style="font-style:normal;font-variant:normal;font-weight:normal;font-stretch:normal;font-family:Consolas;-inkscape-font-specification:Consolas;fill:#6cdea0;fill-opacity:1;stroke-width:0.24261574"
         d="m 63.094314,292.59309 q 0,0.63497 -0.180066,1.10883 -0.175328,0.47386 -0.488075,0.78661 -0.312747,0.31275 -0.73922,0.46912 -0.426473,0.15637 -0.924025,0.15637 -0.227452,0 -0.454905,-0.0237 -0.222713,-0.0237 -0.454904,-0.0806 v 1.99021 h -0.824515 v -6.70036 h 0.734482 l 0.05212,0.79608 q 0.355394,-0.48808 0.758174,-0.68236 0.402781,-0.19902 0.871901,-0.19902 0.407519,0 0.715527,0.17059 0.308008,0.17059 0.516506,0.48334 0.208498,0.308 0.312747,0.74869 0.104249,0.43595 0.104249,0.97615 z m -0.843469,0.0379 q 0,-0.37435 -0.05686,-0.68709 -0.05212,-0.31275 -0.170589,-0.53546 -0.118465,-0.22272 -0.30327,-0.34592 -0.184805,-0.12794 -0.440689,-0.12794 -0.156373,0 -0.317485,0.0521 -0.161112,0.0474 -0.33644,0.16585 -0.170589,0.11373 -0.364871,0.30801 -0.189544,0.18954 -0.407519,0.47386 v 2.30769 q 0.227452,0.0948 0.478597,0.15164 0.251146,0.0521 0.492814,0.0521 0.668141,0 1.047228,-0.45016 0.379087,-0.45491 0.379087,-1.36472 z" />
      <path
         id="path839"
         style="font-style:normal;font-variant:normal;font-weight:normal;font-stretch:normal;font-family:Consolas;-inkscape-font-specification:Consolas;fill:#6cdea0;fill-opacity:1;stroke-width:0.24261574"
         d="m 68.515258,292.64048 q 0,0.55441 -0.156373,1.0188 -0.156373,0.45964 -0.450166,0.79134 -0.293793,0.32696 -0.715527,0.51177 -0.421734,0.18006 -0.957195,0.18006 -0.511768,0 -0.919286,-0.15637 -0.40278,-0.16111 -0.687096,-0.46912 -0.279577,-0.30801 -0.431211,-0.76291 -0.146897,-0.45491 -0.146897,-1.04723 0,-0.55442 0.156374,-1.00932 0.156373,-0.45964 0.450166,-0.78661 0.293792,-0.3317 0.715527,-0.51176 0.421734,-0.18481 0.957195,-0.18481 0.511767,0 0.914548,0.16111 0.407518,0.15638 0.687095,0.46438 0.284315,0.30327 0.431212,0.75818 0.151634,0.4549 0.151634,1.04249 z m -0.843468,0.0379 q 0,-0.44069 -0.09951,-0.76765 -0.09477,-0.33171 -0.274838,-0.54968 -0.180066,-0.22271 -0.440689,-0.3317 -0.255884,-0.11373 -0.573369,-0.11373 -0.36961,0 -0.634971,0.1469 -0.260622,0.14216 -0.431212,0.38382 -0.16585,0.24167 -0.246406,0.5639 -0.07582,0.31748 -0.07582,0.66814 0,0.44069 0.09477,0.77239 0.09951,0.3317 0.279577,0.55441 0.180066,0.21798 0.43595,0.3317 0.255884,0.10899 0.578108,0.10899 0.36961,0 0.630232,-0.14216 0.265361,-0.14689 0.431212,-0.38856 0.170589,-0.24167 0.246407,-0.55915 0.08056,-0.32223 0.08056,-0.67762 z" />
      <path
         id="path841"
         style="font-style:normal;font-variant:normal;font-weight:normal;font-stretch:normal;font-family:Consolas;-inkscape-font-specification:Consolas;fill:#6cdea0;fill-opacity:1;stroke-width:0.24261574"
         d="m 69.913145,290.29962 h 0.753435 l 0.02369,0.87663 q 0.421735,-0.50702 0.829253,-0.73448 0.412258,-0.22745 0.829253,-0.22745 0.73922,0 1.118307,0.4786 0.383826,0.4786 0.355395,1.42158 h -0.833992 q 0.01422,-0.6255 -0.184805,-0.90508 -0.194282,-0.28431 -0.573369,-0.28431 -0.165851,0 -0.33644,0.0616 -0.165851,0.0569 -0.345917,0.18954 -0.175328,0.12795 -0.374349,0.33171 -0.199021,0.20376 -0.426473,0.49281 v 3.05639 h -0.833991 z" />
      <path
         id="path843"
         style="font-style:normal;font-variant:normal;font-weight:normal;font-stretch:normal;font-family:Consolas;-inkscape-font-specification:Consolas;fill:#6cdea0;fill-opacity:1;stroke-width:0.24261574"
         d="m 78.897512,294.99082 q -0.279577,0.0711 -0.578108,0.0995 -0.298531,0.0332 -0.606539,0.0332 -0.895594,0 -1.336283,-0.40278 -0.440688,-0.40752 -0.440688,-1.24625 v -2.48302 H 74.60435 v -0.69183 h 1.331544 v -1.30785 l 0.824514,-0.21324 v 1.52109 h 2.137104 v 0.69183 h -2.137104 v 2.41668 q 0,0.51177 0.2701,0.76765 0.274838,0.25115 0.80556,0.25115 0.227452,0 0.497552,-0.0332 0.270099,-0.0379 0.563892,-0.11373 z" />
    </g>
  </g>
</svg>
