<?xml version="1.0" encoding="UTF-8" standalone="no"?>
<svg
   xmlns:dc="http://purl.org/dc/elements/1.1/"
   xmlns:cc="http://creativecommons.org/ns#"
   xmlns:rdf="http://www.w3.org/1999/02/22-rdf-syntax-ns#"
   xmlns:svg="http://www.w3.org/2000/svg"
   xmlns="http://www.w3.org/2000/svg"
   width="298"
   height="126"
   viewBox="0 0 78.845832 33.337501"
   version="1.1"
   id="svg3433">
  <defs
     id="defs3427" />
  <metadata
     id="metadata3430">
    <rdf:RDF>
      <cc:Work
         rdf:about="">
        <dc:format>image/svg+xml</dc:format>
        <dc:type
           rdf:resource="http://purl.org/dc/dcmitype/StillImage" />
        <dc:title></dc:title>
      </cc:Work>
    </rdf:RDF>
  </metadata>
  <g
     id="layer1"
     transform="translate(0,-263.66248)">
    <g
       id="g935">
      <rect
         rx="0.61671025"
         y="263.65567"
         x="4.7049489e-006"
         height="27.950451"
         width="78.897484"
         id="rect6694-2-8-8-7-8-2"
         style="opacity:1;fill:#000000;fill-opacity:1;stroke:none;stroke-width:0.94297391;stroke-linecap:round;stroke-linejoin:round;stroke-miterlimit:4;stroke-dasharray:none;stroke-dashoffset:0;stroke-opacity:1" />
      <g
         transform="matrix(0.82227908,0,0,0.82227908,-28.629366,195.44456)"
         id="g6729-0-1-2-5-1-3">
        <path
           id="path6700-3-2-2-5-3-0"
           style="font-style:normal;font-variant:normal;font-weight:normal;font-stretch:normal;font-size:medium;line-height:1.25;font-family:Consolas;-inkscape-font-specification:Consolas;letter-spacing:0px;word-spacing:0px;fill:#ffffff;fill-opacity:1;stroke:none;stroke-width:0.5082649"
           d="m 44.647275,98.311475 1.072121,-1.101903 6.670977,5.569078 -6.670977,5.56907 -1.072121,-1.09197 5.410241,-4.45725 z" />
        <path
           id="path6702-8-6-4-2-6-2"
           style="font-style:normal;font-variant:normal;font-weight:normal;font-stretch:normal;font-size:medium;line-height:1.25;font-family:Consolas;-inkscape-font-specification:Consolas;letter-spacing:0px;word-spacing:0px;fill:#ffffff;fill-opacity:1;stroke:none;stroke-width:0.5082649"
           d="m 63.875969,103.02682 q 0,1.24088 -0.347446,2.22366 -0.33752,0.97285 -0.972851,1.65782 -0.625404,0.67504 -1.528766,1.04234 -0.903361,0.35737 -2.035045,0.35737 -0.883507,0 -1.806723,-0.16876 -0.923215,-0.16876 -1.826577,-0.53606 V 94.161968 h 1.727307 v 3.861622 l -0.07942,1.846431 q 0.744529,-1.002632 1.588328,-1.409641 0.853726,-0.416936 1.826577,-0.416936 0.853726,0 1.498985,0.357374 0.645258,0.357374 1.082048,1.012559 0.43679,0.645263 0.655185,1.568473 0.218395,0.91329 0.218395,2.04497 z m -1.767014,0.0794 q 0,-0.78424 -0.119125,-1.43942 -0.109198,-0.65519 -0.357374,-1.12176 -0.248176,-0.46657 -0.635331,-0.724674 -0.387155,-0.26803 -0.923216,-0.26803 -0.327592,0 -0.665112,0.109197 -0.33752,0.09927 -0.70482,0.347447 -0.357374,0.23825 -0.764383,0.64526 -0.397082,0.39708 -0.853726,0.9927 v 4.83448 q 0.506279,0.19854 1.032413,0.31766 0.526133,0.1092 1.002632,0.1092 0.595623,0 1.131683,-0.18861 0.545988,-0.18862 0.952997,-0.62541 0.416936,-0.44672 0.655185,-1.17139 0.248177,-0.7346 0.248177,-1.81665 z" />
        <path
           id="path6704-5-0-4-0-7-1"
           style="font-style:normal;font-variant:normal;font-weight:normal;font-stretch:normal;font-size:medium;line-height:1.25;font-family:Consolas;-inkscape-font-specification:Consolas;letter-spacing:0px;word-spacing:0px;fill:#ffffff;fill-opacity:1;stroke:none;stroke-width:0.5082649"
           d="m 72.95922,108.18889 -0.03971,-1.34015 q -0.814018,0.80409 -1.657818,1.16146 -0.833872,0.35738 -1.757087,0.35738 -0.853727,0 -1.459277,-0.2184 -0.60555,-0.21839 -1.002632,-0.59562 -0.387155,-0.38716 -0.575768,-0.90336 -0.178687,-0.51621 -0.178687,-1.12176 0,-1.49899 1.111829,-2.34278 1.121757,-0.85373 3.305708,-0.85373 h 2.064826 v -0.87358 q 0,-0.88351 -0.565842,-1.40964 -0.565842,-0.536063 -1.727307,-0.536063 -0.843799,0 -1.667744,0.188614 -0.814018,0.188614 -1.687598,0.536059 v -1.558545 q 0.327592,-0.119124 0.724674,-0.228322 0.407009,-0.119124 0.853727,-0.208468 0.446717,-0.08934 0.933142,-0.138979 0.486426,-0.05956 0.982778,-0.05956 0.903362,0 1.628036,0.198541 0.724675,0.198541 1.221027,0.60555 0.50628,0.407009 0.77431,1.022486 0.26803,0.615477 0.26803,1.449347 v 6.86952 z m -0.188614,-4.53666 h -2.193878 q -0.645258,0 -1.11183,0.12905 -0.466571,0.12905 -0.764382,0.3673 -0.297812,0.23825 -0.446718,0.57577 -0.138978,0.32759 -0.138978,0.74453 0,0.28788 0.08934,0.55591 0.08934,0.25811 0.287885,0.46657 0.198541,0.19854 0.516206,0.31767 0.317666,0.11912 0.77431,0.11912 0.595623,0 1.360006,-0.35737 0.77431,-0.3673 1.628036,-1.15154 z" />
        <path
           id="path6706-2-8-4-7-3-0"
           style="font-style:normal;font-variant:normal;font-weight:normal;font-stretch:normal;font-size:medium;line-height:1.25;font-family:Consolas;-inkscape-font-specification:Consolas;letter-spacing:0px;word-spacing:0px;fill:#ffffff;fill-opacity:1;stroke:none;stroke-width:0.5082649"
           d="m 85.645989,105.46888 q 0,0.52613 -0.178687,0.94307 -0.178687,0.41693 -0.486425,0.74453 -0.307739,0.31766 -0.714748,0.54598 -0.407009,0.22833 -0.87358,0.37723 -0.456644,0.14891 -0.94307,0.2184 -0.486425,0.0695 -0.952996,0.0695 -1.01256,0 -1.866286,-0.0894 -0.843799,-0.0893 -1.657817,-0.28788 v -1.58833 q 0.87358,0.24818 1.737234,0.37723 0.863653,0.12905 1.717379,0.12905 1.240881,0 1.836504,-0.33752 0.595623,-0.33752 0.595623,-0.96292 0,-0.26803 -0.09927,-0.4765 -0.08934,-0.2184 -0.33752,-0.40701 -0.248176,-0.19854 -0.77431,-0.40701 -0.516206,-0.20847 -1.419568,-0.4765 -0.675039,-0.19854 -1.250808,-0.44672 -0.565842,-0.2581 -0.982778,-0.60555 -0.416936,-0.34744 -0.655185,-0.81401 -0.238249,-0.46658 -0.238249,-1.10191 0,-0.41693 0.188614,-0.913285 0.198541,-0.496353 0.665112,-0.923216 0.466571,-0.426863 1.260735,-0.70482 0.794164,-0.287885 1.98541,-0.287885 0.585696,0 1.300443,0.06949 0.714748,0.05956 1.489058,0.218395 v 1.538692 q -0.814018,-0.198541 -1.54862,-0.287884 -0.724674,-0.09927 -1.260735,-0.09927 -0.645258,0 -1.091976,0.09927 -0.43679,0.09927 -0.714747,0.277957 -0.26803,0.168756 -0.387155,0.407006 -0.119125,0.22833 -0.119125,0.49636 0,0.26803 0.09927,0.48642 0.109197,0.2184 0.387155,0.42686 0.287884,0.19855 0.794164,0.40701 0.506279,0.19854 1.320297,0.43679 0.883508,0.25811 1.489058,0.54599 0.60555,0.27796 0.982778,0.62541 0.377227,0.34744 0.53606,0.78423 0.16876,0.43679 0.16876,0.99271 z" />
        <path
           id="path6708-4-5-6-3-6-3"
           style="font-style:normal;font-variant:normal;font-weight:normal;font-stretch:normal;font-size:medium;line-height:1.25;font-family:Consolas;-inkscape-font-specification:Consolas;letter-spacing:0px;word-spacing:0px;fill:#ffffff;fill-opacity:1;stroke:none;stroke-width:0.5082649"
           d="m 96.962826,108.18889 h -1.727307 v -6.36324 q 0,-1.15154 -0.43679,-1.71738 -0.426863,-0.575768 -1.230954,-0.575768 -0.347447,0 -0.655185,0.09927 -0.297812,0.08934 -0.625405,0.327593 -0.327592,0.228325 -0.714747,0.625405 -0.387155,0.39708 -0.893435,0.9927 v 6.61142 H 88.951697 V 94.161968 h 1.727306 v 4.060163 l -0.05956,1.568474 q 0.407009,-0.486426 0.794164,-0.814018 0.397082,-0.33752 0.784237,-0.545988 0.397082,-0.208468 0.804091,-0.297811 0.407009,-0.08934 0.843799,-0.08934 1.489058,0 2.303076,0.913289 0.814018,0.903361 0.814018,2.729933 z" />
        <path
           id="path6710-6-8-5-7-4-9"
           style="font-style:normal;font-variant:normal;font-weight:normal;font-stretch:normal;font-size:medium;line-height:1.25;font-family:Consolas;-inkscape-font-specification:Consolas;letter-spacing:0px;word-spacing:0px;fill:#ffffff;fill-opacity:1;stroke:none;stroke-width:0.5082649"
           d="m 100.55642,98.222131 h 1.5784 l 0.0496,1.836509 q 0.88351,-1.062199 1.73724,-1.538697 0.86365,-0.476499 1.73723,-0.476499 1.54862,0 2.34278,1.002632 0.8041,1.002634 0.74453,2.978114 h -1.74716 q 0.0298,-1.31037 -0.38715,-1.89607 -0.40701,-0.595618 -1.20118,-0.595618 -0.34744,0 -0.70482,0.129051 -0.34744,0.119125 -0.72467,0.397087 -0.3673,0.26803 -0.78424,0.69489 -0.41693,0.42686 -0.89343,1.03241 v 6.40295 h -1.74716 z" />
        <path
           id="path6712-7-6-8-8-5-2"
           style="font-style:normal;font-variant:normal;font-weight:normal;font-stretch:normal;font-size:medium;line-height:1.25;font-family:Consolas;-inkscape-font-specification:Consolas;letter-spacing:0px;word-spacing:0px;fill:#ffffff;fill-opacity:1;stroke:none;stroke-width:0.75779265"
           d="m 120.93665,110.67147 h -11.17786 v -3.17764 h 11.17786 z" />
      </g>
      <g
         aria-label="COMMAND LINE FRAMEWORK"
         style="font-style:normal;font-weight:normal;font-size:6.02873182px;line-height:1.25;font-family:sans-serif;letter-spacing:0px;word-spacing:0px;fill:#000000;fill-opacity:1;stroke:none;stroke-width:0.15071829"
         id="text6733-6-8-1-0-70-1">
        <path
           d="m 1.3453009,296.50543 h 0.8919462 q 0.1030301,0 0.176623,0.0736 0.076537,0.0707 0.076537,0.17368 0,0.10303 -0.076537,0.17662 -0.073593,0.0707 -0.176623,0.0707 H 1.31292 q -0.176623,0 -0.36502085,-0.11186 -0.18839787,-0.11186 -0.26199079,-0.25022 L 0.11482732,295.534 Q 2.236967e-5,295.29556 2.236967e-5,295.04534 q 0,-0.27671 0.10891752033,-0.47982 l 0.57696847,-1.09212 q 0.0824241,-0.15308 0.25610336,-0.26788 0.17367928,-0.11775 0.33558368,-0.11775 h 0.977314 q 0.1030301,0 0.1736793,0.0736 0.073593,0.0736 0.073593,0.17368 0,0.10303 -0.073593,0.17957 -0.070649,0.0736 -0.1736793,0.0736 H 1.31292 q -0.1177486,0 -0.1913416,0.13836 l -0.54753127,1.02441 q -0.0647618,0.12069 -0.0647618,0.28554 0,0.17368 0.0706492,0.30615 l 0.52398154,1.00675 q 0.073593,0.15602 0.2413848,0.15602 z"
           style="font-style:normal;font-variant:normal;font-weight:normal;font-stretch:normal;font-family:'OCR A Extended';-inkscape-font-specification:'OCR A Extended';stroke-width:0.15071829"
           id="path857" />
        <path
           d="m 5.4576732,293.44985 0.5445876,1.10978 q 0.114805,0.22666 0.114805,0.4916 0,0.25905 -0.114805,0.48866 l -0.5445876,1.098 q -0.1736793,0.36208 -0.5887433,0.36208 -0.197229,0 -0.3561897,-0.10303 -0.156017,-0.10303 -0.2354974,-0.25905 l -0.5475313,-1.098 q -0.1089175,-0.2149 -0.1089175,-0.48866 0,-0.27377 0.1089175,-0.4916 l 0.5475313,-1.10978 q 0.1854542,-0.36208 0.5916871,-0.36208 0.4121203,0 0.5887433,0.36208 z m -0.7535914,0.24727 -0.5122068,1.04208 q -0.070649,0.15601 -0.070649,0.30614 0,0.16191 0.070649,0.30909 l 0.5269253,1.05385 q 0.041212,0.0971 0.1501296,0.0971 0.094199,0 0.1442421,-0.0971 l 0.529869,-1.05385 q 0.073593,-0.15602 0.073593,-0.30909 0,-0.1619 -0.073593,-0.30614 l -0.5180941,-1.04208 q -0.050043,-0.11481 -0.156017,-0.11481 -0.1059738,0 -0.1648481,0.11481 z"
           style="font-style:normal;font-variant:normal;font-weight:normal;font-stretch:normal;font-family:'OCR A Extended';-inkscape-font-specification:'OCR A Extended';stroke-width:0.15071829"
           id="path859" />
        <path
           d="m 8.2600916,294.62439 v -0.12658 l -0.5122067,-0.73004 v 2.98493 q 0,0.10303 -0.073593,0.17662 -0.070649,0.0707 -0.1736793,0.0707 -0.1030301,0 -0.176623,-0.0736 -0.070649,-0.0736 -0.070649,-0.17368 v -3.66493 H 7.892127 l 0.6093494,0.88606 0.6270116,-0.88606 h 0.6270117 v 3.66493 q 0,0.10303 -0.076537,0.17662 -0.073593,0.0707 -0.176623,0.0707 -0.1000864,0 -0.1736793,-0.0736 -0.073593,-0.0736 -0.073593,-0.17368 v -2.97316 l -0.5004319,0.7065 v 0.13835 q 0,0.10009 -0.073593,0.17368 -0.073593,0.0736 -0.1736793,0.0736 -0.1030301,0 -0.176623,-0.0736 -0.070649,-0.0736 -0.070649,-0.17368 z"
           style="font-style:normal;font-variant:normal;font-weight:normal;font-stretch:normal;font-family:'OCR A Extended';-inkscape-font-specification:'OCR A Extended';stroke-width:0.15071829"
           id="path861" />
        <path
           d="m 11.898526,294.62439 v -0.12658 l -0.512207,-0.73004 v 2.98493 q 0,0.10303 -0.07359,0.17662 -0.07065,0.0707 -0.173679,0.0707 -0.10303,0 -0.176623,-0.0736 -0.07065,-0.0736 -0.07065,-0.17368 v -3.66493 h 0.638786 l 0.60935,0.88606 0.627011,-0.88606 h 0.627012 v 3.66493 q 0,0.10303 -0.07654,0.17662 -0.07359,0.0707 -0.176623,0.0707 -0.100086,0 -0.173679,-0.0736 -0.07359,-0.0736 -0.07359,-0.17368 v -2.97316 l -0.500432,0.7065 v 0.13835 q 0,0.10009 -0.07359,0.17368 -0.07359,0.0736 -0.17368,0.0736 -0.10303,0 -0.176623,-0.0736 -0.07065,-0.0736 -0.07065,-0.17368 z"
           style="font-style:normal;font-variant:normal;font-weight:normal;font-stretch:normal;font-family:'OCR A Extended';-inkscape-font-specification:'OCR A Extended';stroke-width:0.15071829"
           id="path863" />
        <path
           d="m 14.556702,296.65555 1.000864,-3.38233 q 0.05887,-0.18545 0.247272,-0.18545 0.18251,0 0.22961,0.15602 l 0.986145,3.43531 q 0.01178,0.0383 0.01178,0.0736 0,0.10303 -0.07065,0.17662 -0.07065,0.0707 -0.161904,0.0707 -0.194285,0 -0.247272,-0.17957 l -0.200173,-0.67116 h -1.127443 l -0.217836,0.71826 q -0.0088,0.0471 -0.07359,0.0913 -0.06476,0.0412 -0.141299,0.0412 -0.108917,0 -0.179567,-0.0736 -0.07065,-0.0736 -0.07065,-0.17957 0,-0.0442 0.01472,-0.0913 z m 1.242248,-2.42267 -0.423895,1.41592 h 0.833072 z"
           style="font-style:normal;font-variant:normal;font-weight:normal;font-stretch:normal;font-family:'OCR A Extended';-inkscape-font-specification:'OCR A Extended';stroke-width:0.15071829"
           id="path865" />
        <path
           d="m 20.670801,293.34093 v 3.65904 h -0.66528 l -1.33056,-3.03792 v 2.79065 q 0,0.10303 -0.07359,0.17662 -0.07065,0.0707 -0.173679,0.0707 -0.10303,0 -0.176623,-0.0707 -0.07065,-0.0736 -0.07065,-0.17662 v -3.66493 h 0.656449 l 1.333503,3.03203 v -2.77887 q 0,-0.10303 0.07359,-0.17662 0.07654,-0.0765 0.179567,-0.0765 0.10303,0 0.173679,0.0736 0.07359,0.0736 0.07359,0.17957 z"
           style="font-style:normal;font-variant:normal;font-weight:normal;font-stretch:normal;font-family:'OCR A Extended';-inkscape-font-specification:'OCR A Extended';stroke-width:0.15071829"
           id="path867" />
        <path
           d="m 22.060237,293.08777 h 0.977314 q 0.191341,0.003 0.370908,0.12364 0.182511,0.12069 0.267878,0.29142 l 0.488657,0.98909 q 0.138355,0.26788 0.138355,0.55931 0,0.27082 -0.147186,0.55636 l -0.491601,0.97732 q -0.0942,0.18839 -0.270822,0.3032 -0.176623,0.11186 -0.394458,0.11186 h -0.944933 q -0.10303,0 -0.176623,-0.0736 -0.07065,-0.0736 -0.07065,-0.17368 0,-0.10303 0.07065,-0.17663 0.07359,-0.0765 0.176623,-0.0765 h 0.259047 v -2.91134 h -0.253159 q -0.10303,0 -0.176623,-0.0736 -0.07065,-0.0765 -0.07065,-0.17957 0,-0.10008 0.07065,-0.17368 0.07359,-0.0736 0.176623,-0.0736 z m 0.747704,0.50043 v 2.91723 h 0.173679 q 0.164848,0 0.247272,-0.16191 l 0.488657,-0.97143 q 0.09126,-0.19134 0.09126,-0.32086 0,-0.16191 -0.07359,-0.30615 l -0.50632,-1.00675 q -0.07948,-0.15013 -0.259047,-0.15013 z"
           style="font-style:normal;font-variant:normal;font-weight:normal;font-stretch:normal;font-family:'OCR A Extended';-inkscape-font-specification:'OCR A Extended';stroke-width:0.15071829"
           id="path869" />
        <path
           d="m 29.095719,296.99997 v -3.66493 q 0,-0.10008 0.07359,-0.17368 0.07359,-0.0736 0.173679,-0.0736 0.100087,0 0.173679,0.0736 0.07359,0.0736 0.07359,0.17368 v 3.17039 h 1.748568 q 0.10303,0 0.176623,0.0736 0.07654,0.0707 0.07654,0.17368 0,0.10303 -0.07654,0.17662 -0.07359,0.0707 -0.176623,0.0707 z"
           style="font-style:normal;font-variant:normal;font-weight:normal;font-stretch:normal;font-family:'OCR A Extended';-inkscape-font-specification:'OCR A Extended';stroke-width:0.15071829"
           id="path871" />
        <path
           d="m 32.975539,293.08777 h 2.001727 q 0.09714,0 0.170736,0.0736 0.07654,0.0736 0.07654,0.17368 0,0.10303 -0.07359,0.17957 -0.07359,0.0736 -0.17368,0.0736 h -0.747704 v 2.91723 h 0.747704 q 0.103031,0 0.17368,0.0736 0.07359,0.0707 0.07359,0.17368 0,0.10303 -0.07359,0.17662 -0.07359,0.0707 -0.17368,0.0707 h -2.001727 q -0.10303,0 -0.176623,-0.0707 -0.07065,-0.0736 -0.07065,-0.17662 0,-0.10303 0.07065,-0.17368 0.07359,-0.0736 0.176623,-0.0736 h 0.759479 v -2.91723 h -0.759479 q -0.10303,0 -0.176623,-0.0736 -0.07065,-0.0736 -0.07065,-0.17368 0,-0.10597 0.07065,-0.17957 0.07359,-0.0736 0.176623,-0.0736 z"
           style="font-style:normal;font-variant:normal;font-weight:normal;font-stretch:normal;font-family:'OCR A Extended';-inkscape-font-specification:'OCR A Extended';stroke-width:0.15071829"
           id="path873" />
        <path
           d="m 38.86297,293.34093 v 3.65904 h -0.66528 l -1.33056,-3.03792 v 2.79065 q 0,0.10303 -0.07359,0.17662 -0.07065,0.0707 -0.173679,0.0707 -0.10303,0 -0.176623,-0.0707 -0.07065,-0.0736 -0.07065,-0.17662 v -3.66493 h 0.656449 l 1.333503,3.03203 v -2.77887 q 0,-0.10303 0.07359,-0.17662 0.07654,-0.0765 0.179567,-0.0765 0.10303,0 0.173679,0.0736 0.07359,0.0736 0.07359,0.17957 z"
           style="font-style:normal;font-variant:normal;font-weight:normal;font-stretch:normal;font-family:'OCR A Extended';-inkscape-font-specification:'OCR A Extended';stroke-width:0.15071829"
           id="path875" />
        <path
           d="m 42.254133,293.5882 h -1.748567 v 1.20398 h 0.753591 q 0.100086,0 0.173679,0.0736 0.07359,0.0736 0.07359,0.17368 0,0.10598 -0.07359,0.17957 -0.07065,0.0736 -0.173679,0.0736 h -0.753591 v 1.21282 h 1.754455 q 0.100086,0 0.173679,0.0736 0.07359,0.0707 0.07359,0.17368 0,0.10303 -0.07654,0.17662 -0.07359,0.0707 -0.176623,0.0707 h -2.243112 v -3.9122 h 2.243112 q 0.10303,0 0.176623,0.0765 0.07654,0.0736 0.07654,0.17662 0,0.10009 -0.07654,0.17368 -0.07359,0.0736 -0.176623,0.0736 z"
           style="font-style:normal;font-variant:normal;font-weight:normal;font-stretch:normal;font-family:'OCR A Extended';-inkscape-font-specification:'OCR A Extended';stroke-width:0.15071829"
           id="path877" />
        <path
           d="m 47.287888,296.7527 v -3.66493 H 49.531 q 0.09714,0 0.170736,0.0736 0.07654,0.0736 0.07654,0.17368 0,0.10303 -0.07359,0.17957 -0.07359,0.0736 -0.17368,0.0736 h -1.748567 v 0.77714 h 1.254023 q 0.10303,0 0.173679,0.0736 0.07359,0.0707 0.07359,0.17368 0,0.10303 -0.07359,0.17662 -0.07065,0.0707 -0.173679,0.0707 h -1.254023 v 1.89281 q 0,0.10303 -0.07359,0.17662 -0.07065,0.0707 -0.17368,0.0707 -0.10303,0 -0.176623,-0.0707 -0.07065,-0.0736 -0.07065,-0.17662 z"
           style="font-style:normal;font-variant:normal;font-weight:normal;font-stretch:normal;font-family:'OCR A Extended';-inkscape-font-specification:'OCR A Extended';stroke-width:0.15071829"
           id="path879" />
        <path
           d="m 50.932211,296.7527 v -3.66493 h 1.748568 q 0.303203,0 0.521038,0.22078 0.220778,0.22078 0.220778,0.52692 v 0.2826 q 0,0.30909 -0.217835,0.52987 -0.217835,0.21783 -0.523981,0.21783 h -0.314978 l 1.012639,1.7368 q 0.0471,0.0765 0.0471,0.15307 0,0.10009 -0.07654,0.17368 -0.07654,0.0707 -0.173679,0.0707 -0.147186,0 -0.223722,-0.13247 l -1.162768,-2.00173 h -0.35619 v 1.88693 q 0,0.10303 -0.07654,0.17662 -0.07359,0.0707 -0.176623,0.0707 -0.10303,0 -0.176623,-0.0707 -0.07065,-0.0736 -0.07065,-0.17662 z m 0.494544,-2.38147 h 1.254024 q 0.10303,0 0.173679,-0.0707 0.07359,-0.0736 0.07359,-0.17662 v -0.28849 q 0,-0.10303 -0.07359,-0.17368 -0.07065,-0.0736 -0.173679,-0.0736 h -1.254024 z"
           style="font-style:normal;font-variant:normal;font-weight:normal;font-stretch:normal;font-family:'OCR A Extended';-inkscape-font-specification:'OCR A Extended';stroke-width:0.15071829"
           id="path881" />
        <path
           d="m 54.579474,296.65555 1.000863,-3.38233 q 0.05888,-0.18545 0.247273,-0.18545 0.18251,0 0.229609,0.15602 l 0.986146,3.43531 q 0.01177,0.0383 0.01177,0.0736 0,0.10303 -0.07065,0.17662 -0.07065,0.0707 -0.161904,0.0707 -0.194286,0 -0.247272,-0.17957 l -0.200173,-0.67116 h -1.127444 l -0.217835,0.71826 q -0.0088,0.0471 -0.07359,0.0913 -0.06476,0.0412 -0.141298,0.0412 -0.108918,0 -0.179567,-0.0736 -0.07065,-0.0736 -0.07065,-0.17957 0,-0.0442 0.01472,-0.0913 z m 1.242248,-2.42267 -0.423895,1.41592 h 0.833072 z"
           style="font-style:normal;font-variant:normal;font-weight:normal;font-stretch:normal;font-family:'OCR A Extended';-inkscape-font-specification:'OCR A Extended';stroke-width:0.15071829"
           id="path883" />
        <path
           d="m 59.198167,294.62439 v -0.12658 l -0.512207,-0.73004 v 2.98493 q 0,0.10303 -0.07359,0.17662 -0.07065,0.0707 -0.173679,0.0707 -0.10303,0 -0.176623,-0.0736 -0.07065,-0.0736 -0.07065,-0.17368 v -3.66493 h 0.638786 l 0.609349,0.88606 0.627012,-0.88606 h 0.627012 v 3.66493 q 0,0.10303 -0.07654,0.17662 -0.07359,0.0707 -0.176623,0.0707 -0.100086,0 -0.173679,-0.0736 -0.07359,-0.0736 -0.07359,-0.17368 v -2.97316 l -0.500432,0.7065 v 0.13835 q 0,0.10009 -0.07359,0.17368 -0.07359,0.0736 -0.173679,0.0736 -0.10303,0 -0.176623,-0.0736 -0.07065,-0.0736 -0.07065,-0.17368 z"
           style="font-style:normal;font-variant:normal;font-weight:normal;font-stretch:normal;font-family:'OCR A Extended';-inkscape-font-specification:'OCR A Extended';stroke-width:0.15071829"
           id="path885" />
        <path
           d="M 64.084738,293.5882 H 62.33617 v 1.20398 h 0.753592 q 0.100086,0 0.173679,0.0736 0.07359,0.0736 0.07359,0.17368 0,0.10598 -0.07359,0.17957 -0.07065,0.0736 -0.173679,0.0736 H 62.33617 v 1.21282 h 1.754455 q 0.100087,0 0.17368,0.0736 0.07359,0.0707 0.07359,0.17368 0,0.10303 -0.07654,0.17662 -0.07359,0.0707 -0.176623,0.0707 h -2.243112 v -3.9122 h 2.243112 q 0.10303,0 0.176623,0.0765 0.07654,0.0736 0.07654,0.17662 0,0.10009 -0.07654,0.17368 -0.07359,0.0736 -0.176623,0.0736 z"
           style="font-style:normal;font-variant:normal;font-weight:normal;font-stretch:normal;font-family:'OCR A Extended';-inkscape-font-specification:'OCR A Extended';stroke-width:0.15071829"
           id="path887" />
        <path
           d="m 66.975469,294.6185 v 1.64554 l 0.144242,0.24139 h 0.206061 l 0.150129,-0.24728 v -2.91722 q 0,-0.10303 0.07359,-0.17662 0.07654,-0.0765 0.179567,-0.0765 0.100086,0 0.173679,0.0736 0.07359,0.0736 0.07359,0.17368 v 3.00259 q 0,0.0559 -0.06182,0.15602 l -0.22961,0.37974 q -0.07065,0.12658 -0.214891,0.12658 h -0.465108 q -0.220778,0 -0.282596,-0.20017 -0.06771,0.20017 -0.270822,0.20017 h -0.43567 q -0.188398,0 -0.270822,-0.13836 l -0.211948,-0.35618 q -0.05887,-0.0971 -0.05887,-0.1678 v -2.9967 q 0,-0.10303 0.07359,-0.17662 0.07654,-0.0765 0.179566,-0.0765 0.09714,0 0.167792,0.0765 0.07359,0.0736 0.07359,0.17662 v 2.929 l 0.144242,0.2355 h 0.211948 l 0.156017,-0.24728 v -1.63965 q 0,-0.10303 0.07065,-0.17368 0.07359,-0.0736 0.176623,-0.0736 0.10303,0 0.173679,0.0736 0.07359,0.0707 0.07359,0.17368 z"
           style="font-style:normal;font-variant:normal;font-weight:normal;font-stretch:normal;font-family:'OCR A Extended';-inkscape-font-specification:'OCR A Extended';stroke-width:0.15071829"
           id="path889" />
        <path
           d="m 70.949481,293.44985 0.544587,1.10978 q 0.114805,0.22666 0.114805,0.4916 0,0.25905 -0.114805,0.48866 l -0.544587,1.098 q -0.17368,0.36208 -0.588744,0.36208 -0.197229,0 -0.356189,-0.10303 -0.156017,-0.10303 -0.235498,-0.25905 l -0.547531,-1.098 q -0.108918,-0.2149 -0.108918,-0.48866 0,-0.27377 0.108918,-0.4916 l 0.547531,-1.10978 q 0.185454,-0.36208 0.591687,-0.36208 0.412121,0 0.588744,0.36208 z m -0.753592,0.24727 -0.512206,1.04208 q -0.07065,0.15601 -0.07065,0.30614 0,0.16191 0.07065,0.30909 l 0.526925,1.05385 q 0.04121,0.0971 0.150129,0.0971 0.0942,0 0.144242,-0.0971 l 0.529869,-1.05385 q 0.07359,-0.15602 0.07359,-0.30909 0,-0.1619 -0.07359,-0.30614 l -0.518094,-1.04208 q -0.05004,-0.11481 -0.156017,-0.11481 -0.105973,0 -0.164848,0.11481 z"
           style="font-style:normal;font-variant:normal;font-weight:normal;font-stretch:normal;font-family:'OCR A Extended';-inkscape-font-specification:'OCR A Extended';stroke-width:0.15071829"
           id="path891" />
        <path
           d="m 72.762812,296.7527 v -3.66493 h 1.748567 q 0.303203,0 0.521038,0.22078 0.220779,0.22078 0.220779,0.52692 v 0.2826 q 0,0.30909 -0.217835,0.52987 -0.217835,0.21783 -0.523982,0.21783 h -0.314977 l 1.012638,1.7368 q 0.0471,0.0765 0.0471,0.15307 0,0.10009 -0.07654,0.17368 -0.07654,0.0707 -0.173679,0.0707 -0.147186,0 -0.223723,-0.13247 l -1.162768,-2.00173 h -0.356189 v 1.88693 q 0,0.10303 -0.07654,0.17662 -0.07359,0.0707 -0.176623,0.0707 -0.10303,0 -0.176623,-0.0707 -0.07065,-0.0736 -0.07065,-0.17662 z m 0.494544,-2.38147 h 1.254023 q 0.103031,0 0.17368,-0.0707 0.07359,-0.0736 0.07359,-0.17662 v -0.28849 q 0,-0.10303 -0.07359,-0.17368 -0.07065,-0.0736 -0.17368,-0.0736 h -1.254023 z"
           style="font-style:normal;font-variant:normal;font-weight:normal;font-stretch:normal;font-family:'OCR A Extended';-inkscape-font-specification:'OCR A Extended';stroke-width:0.15071829"
           id="path893" />
        <path
           d="m 76.389472,296.7527 v -3.41177 q 0,-0.10597 0.07065,-0.17957 0.07359,-0.0736 0.176623,-0.0736 0.10303,0 0.17368,0.0736 0.07359,0.0707 0.07359,0.17368 v 1.16866 l 1.583719,-1.35117 q 0.08242,-0.0677 0.185454,-0.0677 0.10303,0 0.17368,0.0765 0.07065,0.0765 0.07065,0.17663 0,0.10303 -0.07948,0.17073 l -1.795667,1.52485 1.795667,1.55134 q 0.07359,0.0618 0.07359,0.15896 0,0.0971 -0.07359,0.17662 -0.07065,0.0795 -0.176623,0.0795 -0.100086,0 -0.179566,-0.0677 l -1.577832,-1.35999 v 1.18043 q 0,0.10303 -0.07359,0.17662 -0.07065,0.0707 -0.17368,0.0707 -0.100086,0 -0.173679,-0.0707 -0.07359,-0.0736 -0.07359,-0.17662 z"
           style="font-style:normal;font-variant:normal;font-weight:normal;font-stretch:normal;font-family:'OCR A Extended';-inkscape-font-specification:'OCR A Extended';stroke-width:0.15071829"
           id="path895" />
      </g>
      <g
         style="fill:#454846;fill-opacity:1"
         id="g8017-8-2-6-5"
         transform="matrix(0.59639042,0,0,0.59639042,-445.43688,206.60515)">
        <rect
           style="opacity:1;fill:#454846;fill-opacity:1;stroke:none;stroke-width:0.62690324;stroke-linecap:round;stroke-linejoin:round;stroke-miterlimit:4;stroke-dasharray:none;stroke-dashoffset:0;stroke-opacity:1"
           id="rect6694-2-8-6-7-3-2-3"
           width="132.29167"
           height="7.3675156"
           x="746.88806"
           y="95.659698"
           rx="1.0340713" />
        <rect
           style="opacity:1;fill:#454846;fill-opacity:1;stroke:none;stroke-width:0.43978301;stroke-linecap:round;stroke-linejoin:round;stroke-miterlimit:4;stroke-dasharray:none;stroke-dashoffset:0;stroke-opacity:1"
           id="rect6694-2-8-6-2-4-6-7-8"
           width="132.29167"
           height="3.6257422"
           x="746.88806"
           y="100.91055" />
      </g>
      <g
         transform="matrix(0.59639042,0,0,0.59639042,-445.43688,206.52054)"
         id="g8022-5-9-2-3">
        <circle
           style="opacity:1;fill:#fb4c53;fill-opacity:1;stroke:none;stroke-width:0.86095327;stroke-linecap:round;stroke-linejoin:round;stroke-miterlimit:4;stroke-dasharray:none;stroke-dashoffset:0;stroke-opacity:1"
           id="path7947-8-8-55-0"
           cx="751.71124"
           cy="100.23986"
           r="2.4210978" />
        <circle
           style="opacity:1;fill:#f3c242;fill-opacity:1;stroke:none;stroke-width:0.86095327;stroke-linecap:round;stroke-linejoin:round;stroke-miterlimit:4;stroke-dasharray:none;stroke-dashoffset:0;stroke-opacity:1"
           id="path7947-5-66-0-4-6"
           cx="758.13916"
           cy="100.23986"
           r="2.4210978" />
        <circle
           style="opacity:1;fill:#29f04b;fill-opacity:1;stroke:none;stroke-width:0.86095327;stroke-linecap:round;stroke-linejoin:round;stroke-miterlimit:4;stroke-dasharray:none;stroke-dashoffset:0;stroke-opacity:1"
           id="path7947-6-8-6-9-5"
           cx="764.56708"
           cy="100.23986"
           r="2.4210978" />
      </g>
    </g>
  </g>
</svg>
