<?xml version="1.0" encoding="UTF-8" standalone="no"?>
<svg
   xmlns:dc="http://purl.org/dc/elements/1.1/"
   xmlns:cc="http://creativecommons.org/ns#"
   xmlns:rdf="http://www.w3.org/1999/02/22-rdf-syntax-ns#"
   xmlns:svg="http://www.w3.org/2000/svg"
   xmlns="http://www.w3.org/2000/svg"
   width="298"
   height="274"
   viewBox="0 0 78.845832 72.495835"
   version="1.1"
   id="svg2801">
  <defs
     id="defs2795" />
  <metadata
     id="metadata2798">
    <rdf:RDF>
      <cc:Work
         rdf:about="">
        <dc:format>image/svg+xml</dc:format>
        <dc:type
           rdf:resource="http://purl.org/dc/dcmitype/StillImage" />
        <dc:title></dc:title>
      </cc:Work>
    </rdf:RDF>
  </metadata>
  <g
     id="g959">
    <path
       id="path6-3-5-0-9-5-0-4"
       style="opacity:1;fill:#da0000;fill-rule:evenodd;stroke:none;stroke-width:0.4789333;stroke-linecap:butt;stroke-linejoin:miter;stroke-miterlimit:10;stroke-dasharray:none"
       d="m 36.894781,4.0640731 1.987558,1.9875768 h 0.359235 v 6.1303461 h -1.819971 v -1.86784 c 0.255291,-0.111589 0.391314,-0.311304 0.407089,-0.5986655 -0.03202,-0.3673393 -0.239455,-0.5747189 -0.622621,-0.6226165 -0.36734,0.047898 -0.567049,0.2552772 -0.598651,0.6226165 0.01601,0.2873615 0.151338,0.4870765 0.407089,0.5986655 v 1.86784 h -1.340995 l -0.239469,-0.263411 0.335264,-5.6514221 0.215489,-0.215513 h 0.502894 v -1.819947 z" />
    <path
       id="path8-0-1-8-6-95-1-2"
       style="opacity:1;fill:#da0000;fill-rule:evenodd;stroke:none;stroke-width:0.4789333;stroke-linecap:butt;stroke-linejoin:miter;stroke-miterlimit:10;stroke-dasharray:none"
       d="m 30.141805,37.776189 c 0.383166,-0.03164 0.590551,-0.231326 0.622626,-0.598665 -0.03159,-0.383153 -0.23946,-0.590523 -0.622626,-0.622612 -0.36734,0.03164 -0.574719,0.239459 -0.622574,0.622612 0.04785,0.367339 0.255234,0.567058 0.622574,0.598665 z m 9.123696,-15.086403 v 1.173394 h -2.250992 l -4.621712,0.862081 -1.484659,11.159142 c 0.462628,0.287844 0.702083,0.718397 0.718378,1.293121 -0.07998,0.894165 -0.574723,1.388906 -1.484711,1.484687 -0.909935,-0.0953 -1.405155,-0.590039 -1.484659,-1.484687 0.04785,-0.734206 0.415237,-1.213144 1.101545,-1.436805 0.01601,-0.143673 0.151807,-1.173379 0.407089,-3.089112 0.255244,-1.899451 0.510994,-3.799381 0.766281,-5.698832 0.255286,-1.915733 0.391271,-2.945439 0.407089,-3.089117 l 0.167634,-0.168108 5.507725,-1.005764 z" />
    <path
       id="path10-7-7-2-5-9-0-3"
       style="opacity:1;fill:#da0000;fill-rule:evenodd;stroke:none;stroke-width:0.4789333;stroke-linecap:butt;stroke-linejoin:miter;stroke-miterlimit:10;stroke-dasharray:none"
       d="m 39.263097,24.514292 v 1.795996 h -2.22706 v 1.628371 h 2.22706 v 1.484693 h -2.22706 v 1.604907 h 2.22706 v 1.484692 h -2.22706 v 1.628376 h 2.22706 v 1.795996 h -2.22706 c -0.06368,0 -0.119727,-0.02442 -0.167582,-0.07184 l -2.466524,-2.490456 c -0.0479,-0.04838 -0.07183,-0.103934 -0.07183,-0.168108 l 0.383114,-5.675354 c 0.01649,-0.0637 0.03957,-0.119737 0.07188,-0.16763 l 2.250944,-2.227041 v -0.622607 z" />
    <path
       id="rect12-75-5-4-5-2-8-2"
       d="m 37.014509,20.443597 h 2.227017 v 1.604424 h -2.227017 z"
       style="opacity:1;fill:#da0000;fill-rule:evenodd;stroke:none;stroke-width:0.4789333;stroke-linecap:butt;stroke-linejoin:miter;stroke-miterlimit:10;stroke-dasharray:none" />
    <path
       id="rect14-9-4-0-6-9-8-4"
       d="m 37.014509,16.58818 h 2.227017 v 1.604429 h -2.227017 z"
       style="opacity:1;fill:#da0000;fill-rule:evenodd;stroke:none;stroke-width:0.4789333;stroke-linecap:butt;stroke-linejoin:miter;stroke-miterlimit:10;stroke-dasharray:none" />
    <path
       id="rect16-8-6-0-1-3-4-5"
       d="m 37.014509,12.751926 h 2.227017 v 1.60443 h -2.227017 z"
       style="opacity:1;fill:#da0000;fill-rule:evenodd;stroke:none;stroke-width:0.4789333;stroke-linecap:butt;stroke-linejoin:miter;stroke-miterlimit:10;stroke-dasharray:none" />
    <path
       id="path18-5-5-6-2-4-4-9"
       style="opacity:1;fill:#da0000;fill-rule:evenodd;stroke:none;stroke-width:0.4789333;stroke-linecap:butt;stroke-linejoin:miter;stroke-miterlimit:10;stroke-dasharray:none"
       d="m 24.490421,24.70347 c 0.383119,-0.03164 0.590508,-0.230844 0.622583,-0.598671 -0.03159,-0.383142 -0.239464,-0.590044 -0.622583,-0.622606 -0.367335,0.03211 -0.574719,0.239464 -0.622621,0.622606 0.0479,0.367345 0.255286,0.566581 0.622621,0.598671 z m 12.548015,-6.082453 h 2.227065 v 1.173384 h -2.227065 l -6.202175,-0.83813 -4.956933,4.621702 c 0.06369,0.175773 0.09576,0.350581 0.09576,0.526826 -0.07997,0.894171 -0.574728,1.388907 -1.484668,1.484698 -0.909983,-0.09579 -1.404729,-0.590527 -1.484707,-1.484698 0.07998,-0.909973 0.574724,-1.41237 1.484707,-1.508634 0.207389,0 0.407099,0.04837 0.598651,0.144152 l 5.292192,-4.933006 0.191615,-0.07184 z" />
    <path
       id="path20-7-1-3-4-2-4-1"
       style="opacity:1;fill:#da0000;fill-rule:evenodd;stroke:none;stroke-width:0.4789333;stroke-linecap:butt;stroke-linejoin:miter;stroke-miterlimit:10;stroke-dasharray:none"
       d="M 30.139411,2.2201844 C 30.522568,2.188549 30.729952,1.9807154 30.762027,1.5975727 30.730439,1.2302334 30.522568,1.0228491 30.139411,0.97495144 29.772067,1.0228491 29.564682,1.2307065 29.516832,1.5975727 c 0.04785,0.3831427 0.255235,0.5905223 0.622579,0.6226117 z m -0.407099,0.8141879 c -0.670476,-0.2236656 -1.029715,-0.7025988 -1.07757,-1.4367996 0.07951,-0.90997831 0.574724,-1.40471489 1.484669,-1.48469718 0.909983,0.0799823 1.404729,0.57471887 1.484702,1.48469718 -0.01649,0.5747189 -0.263435,1.0057592 -0.742354,1.2931163 l 1.484712,11.159147 4.645634,0.86208 h 2.22707 v 1.173389 h -2.22707 l -5.50772,-1.005764 -0.191557,-0.167625 C 31.296819,14.752434 31.161446,13.722724 30.90573,11.822795 30.649975,9.9228652 30.394688,8.0152803 30.139411,6.099538 29.884167,4.1996134 29.748139,3.1780508 29.732312,3.0343723 Z" />
    <path
       id="path22-4-9-2-3-3-5-0"
       style="opacity:1;fill:#6b0000;fill-rule:evenodd;stroke:none;stroke-width:0.4789333;stroke-linecap:butt;stroke-linejoin:miter;stroke-miterlimit:10;stroke-dasharray:none"
       d="m 48.819745,36.555395 c -0.367339,0.03164 -0.567049,0.239459 -0.598651,0.622606 0.03159,0.367345 0.231312,0.567059 0.598651,0.598671 0.383162,-0.03164 0.590551,-0.231326 0.622626,-0.598671 -0.03159,-0.383147 -0.239464,-0.591 -0.622626,-0.622606 z m -0.765812,-9.60262 c 0.255287,1.899929 0.510521,3.799854 0.766281,5.698832 0.255291,1.915733 0.390841,2.945439 0.407093,3.089112 0.686829,0.223661 1.053643,0.702599 1.102018,1.436805 -0.09576,0.894165 -0.598651,1.388906 -1.508638,1.484687 -0.894161,-0.0953 -1.388907,-0.590039 -1.484659,-1.484687 0.01601,-0.558433 0.263386,-0.989478 0.742353,-1.293121 L 46.592733,24.725261 41.947514,23.86318 h -2.22749 v -1.173394 h 2.227017 l 5.507725,1.005764 0.191131,0.168108 c 0.01696,0.159482 0.152754,1.189192 0.408036,3.089117 z" />
    <path
       id="path24-73-0-2-2-0-0-5"
       style="opacity:1;fill:#6b0000;fill-rule:evenodd;stroke:none;stroke-width:0.4789333;stroke-linecap:butt;stroke-linejoin:miter;stroke-miterlimit:10;stroke-dasharray:none"
       d="m 41.945584,24.514292 v 0.622607 l 2.250519,2.250988 c 0.03159,0.03206 0.05605,0.07999 0.07183,0.143683 l 0.383157,5.675354 c 0,0.06417 -0.02399,0.119732 -0.07135,0.168108 l -2.490462,2.490456 c -0.04837,0.04789 -0.0958,0.07184 -0.143697,0.07184 h -2.227486 v -1.795996 h 2.227013 v -1.628376 h -2.227013 v -1.484692 h 2.227013 v -1.604907 h -2.227013 v -1.484693 h 2.227013 v -1.628371 h -2.227013 v -1.795996 z" />
    <path
       id="path26-9-3-5-1-8-8-9"
       style="opacity:1;fill:#6b0000;fill-rule:evenodd;stroke:none;stroke-width:0.4789333;stroke-linecap:butt;stroke-linejoin:miter;stroke-miterlimit:10;stroke-dasharray:none"
       d="m 39.720492,6.0516499 h 0.359192 l 1.987558,-1.9875768 0.407094,0.1676298 v 1.819947 h 0.502894 l 0.215532,0.215513 0.335269,5.6514221 -0.239512,0.263411 h -1.341005 v -1.86784 c 0.255287,-0.111589 0.390846,-0.311304 0.40709,-0.5986655 -0.03159,-0.3673393 -0.231312,-0.5747189 -0.598651,-0.6226165 -0.383162,0.047898 -0.590494,0.2552772 -0.622622,0.6226165 0.01601,0.2873615 0.151334,0.4870765 0.407089,0.5986655 v 1.86784 h -1.819928 z" />
    <path
       id="rect28-1-0-4-5-97-8-7"
       d="m 39.720492,20.443597 h 2.227022 v 1.604424 h -2.227022 z"
       style="opacity:1;fill:#6b0000;fill-rule:evenodd;stroke:none;stroke-width:0.4789333;stroke-linecap:butt;stroke-linejoin:miter;stroke-miterlimit:10;stroke-dasharray:none" />
    <path
       id="rect30-9-9-7-7-3-5-5"
       d="m 39.720492,16.58818 h 2.227022 v 1.604429 h -2.227022 z"
       style="opacity:1;fill:#6b0000;fill-rule:evenodd;stroke:none;stroke-width:0.4789333;stroke-linecap:butt;stroke-linejoin:miter;stroke-miterlimit:10;stroke-dasharray:none" />
    <path
       id="rect32-7-8-1-1-2-7-5"
       d="m 39.720492,12.751926 h 2.227022 v 1.60443 h -2.227022 z"
       style="opacity:1;fill:#6b0000;fill-rule:evenodd;stroke:none;stroke-width:0.4789333;stroke-linecap:butt;stroke-linejoin:miter;stroke-miterlimit:10;stroke-dasharray:none" />
    <path
       id="path34-8-3-2-3-9-0-7"
       style="opacity:1;fill:#6b0000;fill-rule:evenodd;stroke:none;stroke-width:0.4789333;stroke-linecap:butt;stroke-linejoin:miter;stroke-miterlimit:10;stroke-dasharray:none"
       d="m 54.495338,24.703713 c 0.367813,-0.03164 0.574724,-0.230843 0.623095,-0.59867 -0.04837,-0.383147 -0.255282,-0.590049 -0.623095,-0.622612 -0.383118,0.03207 -0.590034,0.239465 -0.622626,0.622612 0.0325,0.367344 0.239508,0.566581 0.622626,0.59867 z m 1.48518,-0.59867 c -0.0958,0.89417 -0.590546,1.388907 -1.48518,1.484693 -0.909471,-0.09531 -1.405202,-0.59004 -1.484706,-1.484693 0,-0.175768 0.02399,-0.35058 0.07187,-0.526826 l -4.956976,-4.621707 -6.177779,0.83813 h -2.227486 v -1.149433 h 2.227017 l 6.465605,-0.909974 0.191094,0.07183 5.268265,4.933015 c 0.207853,-0.09578 0.414764,-0.144156 0.622621,-0.144156 0.910461,0.09626 1.405676,0.598665 1.485653,1.509121 z" />
    <path
       id="path36-3-9-8-8-8-7-8"
       style="opacity:1;fill:#6b0000;fill-rule:evenodd;stroke:none;stroke-width:0.4789333;stroke-linecap:butt;stroke-linejoin:miter;stroke-miterlimit:10;stroke-dasharray:none"
       d="m 48.195657,1.5975727 c 0.03159,0.3831427 0.239512,0.5905223 0.622631,0.6226117 0.383157,-0.031635 0.590546,-0.239469 0.622621,-0.6226117 C 49.409321,1.2302334 49.201445,1.0228491 48.818288,0.97495144 48.435169,1.0228491 48.227311,1.2302334 48.195657,1.5975727 Z m 0.622158,4.5019653 c -0.255287,1.9157423 -0.510531,3.8233272 -0.766286,5.723257 -0.255287,1.899451 -0.390789,2.929639 -0.407557,3.089121 l -0.191137,0.167625 -5.507724,1.005764 h -2.227013 v -1.173389 h 2.227013 l 4.64517,-0.86208 1.48518,-11.159147 C 47.596542,2.6033319 47.34893,2.1722916 47.333103,1.5975727 c 0.08002,-0.90997831 0.574724,-1.40471489 1.484712,-1.48469718 0.909987,0.0799823 1.405202,0.57471887 1.484706,1.48469718 -0.03159,0.7342008 -0.390841,1.213134 -1.077617,1.4367996 -0.01601,0.1436785 -0.151334,1.1652411 -0.407089,3.0651657 z" />
    <g
       id="text42-7-8-5-1-86-0-1"
       style="font-weight:normal;font-size:16px;font-family:Orbitron;opacity:1;fill:#da0000;fill-rule:nonzero;stroke:none;stroke-width:1;stroke-linecap:butt;stroke-linejoin:miter;stroke-miterlimit:10;stroke-dasharray:none"
       aria-label="worqr"
       transform="matrix(1.4613606,0,0,1.4613606,39.529815,51.40239)">
      <path
         id="path62-1-9-6-8-7-8-1"
         style="fill:#da0000"
         d="m -12.298001,-4.24 h 1.424 l -3.504,9.28 h -1.136 l -3.456,-7.664 -3.28,7.664 h -1.152 l -3.648,-9.28 h 1.408 l 2.816,6.912 2.992,-6.912 h 1.728 l 3.184,6.896 z" />
      <path
         id="path64-2-1-5-3-4-7-7"
         style="fill:#da0000"
         d="m -8.0455006,-4.24 h 5.568 q 0.816,0 1.376,0.576 0.57599999,0.56 0.57599999,1.36 v 5.408 q 0,0.8 -0.57599999,1.376 -0.56,0.56 -1.376,0.56 h -5.568 q -0.8,0 -1.376,-0.56 -0.56,-0.576 -0.56,-1.376 v -5.408 q 0,-0.8 0.56,-1.36 0.576,-0.576 1.376,-0.576 z m 5.568,1.312 h -5.568 q -0.256,0 -0.448,0.192 -0.176,0.176 -0.176,0.432 v 5.408 q 0,0.256 0.176,0.448 0.192,0.176 0.448,0.176 h 5.568 q 0.256,0 0.432,-0.176 0.192,-0.192 0.192,-0.448 v -5.408 q 0,-0.256 -0.192,-0.432 -0.176,-0.192 -0.432,-0.192 z" />
      <path
         id="path66-83-1-8-0-5-5-5"
         style="fill:#da0000"
         d="m 2.8767494,-4.24 h 5.216 v 1.312 h -5.216 q -0.256,0 -0.448,0.192 -0.176,0.176 -0.176,0.432 V 5.04 H 0.94074939 v -7.344 q 0,-0.8 0.56000001,-1.36 0.576,-0.576 1.376,-0.576 z" />
      <path
         id="path68-0-5-9-2-2-0-3"
         style="fill:#da0000"
         d="m 8.6474994,-2.304 q 0,-0.8 0.56,-1.36 0.576,-0.576 1.3919996,-0.576 h 7.504 V 8.72 h -1.312 V 5.04 h -6.192 q -0.8159996,0 -1.3919996,-0.56 -0.56,-0.576 -0.56,-1.376 z m 1.328,0 v 5.408 q 0,0.256 0.1759996,0.448 0.192,0.176 0.448,0.176 h 5.568 q 0.256,0 0.432,-0.176 0.192,-0.192 0.192,-0.448 v -5.408 q 0,-0.256 -0.192,-0.432 -0.176,-0.192 -0.432,-0.192 h -5.568 q -0.256,0 -0.448,0.192 -0.1759996,0.176 -0.1759996,0.432 z" />
      <path
         id="path70-2-0-9-9-7-9-6"
         style="fill:#da0000"
         d="m 21.720499,-4.24 h 5.216 v 1.312 h -5.216 q -0.256,0 -0.448,0.192 -0.176,0.176 -0.176,0.432 V 5.04 h -1.312 v -7.344 q 0,-0.8 0.56,-1.36 0.576,-0.576 1.376,-0.576 z" />
    </g>
    <g
       aria-label="atomic redis queue"
       style="font-style:normal;font-variant:normal;font-weight:normal;font-stretch:normal;font-size:8.05855465px;line-height:1.25;font-family:Papyrus;-inkscape-font-specification:Papyrus;letter-spacing:0px;word-spacing:0px;fill:#da0000;fill-opacity:1;stroke:none;stroke-width:0.20146385"
       id="text7649-4-9">
      <path
         d="m 2.6442095,70.882545 -0.015739,-0.531203 q -0.3226569,0.318722 -0.6571184,0.460376 -0.3305267,0.141655 -0.6964669,0.141655 -0.33839634,0 -0.57842165,-0.08657 Q 0.45643784,70.78024 0.2990442,70.630716 0.14558539,70.477257 0.07082341,70.272645 -3.7313439e-6,70.068033 -3.7313439e-6,69.828008 q 0,-0.594161 0.4407022113439,-0.928622 0.44463704,-0.338397 1.31030212,-0.338397 h 0.8184469 v -0.346266 q 0,-0.350201 -0.2242859,-0.558747 -0.224286,-0.212482 -0.6846624,-0.212482 -0.3344615,0 -0.66105328,0.07476 -0.32265698,0.07476 -0.668923,0.212482 v -0.61777 q 0.12984976,-0.04722 0.28724341,-0.0905 0.16132848,-0.04722 0.33839634,-0.08263 0.17706783,-0.03541 0.36987503,-0.05509 0.1928072,-0.02361 0.3895493,-0.02361 0.3580705,0 0.645314,0.0787 0.2872434,0.0787 0.4839854,0.240025 0.2006769,0.161328 0.3069176,0.405289 0.1062407,0.24396 0.1062407,0.574486 v 2.72291 z M 2.5694475,69.084323 H 1.6998476 q -0.2557646,0 -0.4407022,0.05115 -0.1849375,0.05115 -0.30298273,0.145589 -0.11804524,0.09444 -0.17706786,0.228221 -0.0550878,0.12985 -0.0550878,0.295113 0,0.11411 0.0354136,0.220351 0.0354136,0.102306 0.11411039,0.184938 0.0786968,0.0787 0.2046117,0.125915 0.125915,0.04722 0.3069176,0.04722 0.2360905,0 0.5390733,-0.141655 0.3069176,-0.145589 0.6453139,-0.456441 z"
         style="font-style:normal;font-variant:normal;font-weight:normal;font-stretch:normal;font-family:Consolas;-inkscape-font-specification:Consolas;fill:#da0000;fill-opacity:1;stroke-width:0.20146385"
         id="path887" />
      <path
         d="m 7.7280243,70.827458 q -0.2321556,0.05902 -0.4800506,0.08263 -0.247895,0.02754 -0.5036596,0.02754 -0.743685,0 -1.1096252,-0.334461 Q 5.2687486,70.264775 5.2687486,69.568309 V 67.506452 H 4.1630583 V 66.931965 H 5.2687486 V 65.845949 L 5.953411,65.668881 v 1.263084 h 1.7746133 v 0.574487 H 5.953411 v 2.006769 q 0,0.424963 0.2242859,0.637444 0.2282208,0.208547 0.668923,0.208547 0.1888724,0 0.4131583,-0.02754 0.224286,-0.03148 0.4682461,-0.09444 z"
         style="font-style:normal;font-variant:normal;font-weight:normal;font-stretch:normal;font-family:Consolas;-inkscape-font-specification:Consolas;fill:#da0000;fill-opacity:1;stroke-width:0.20146385"
         id="path889" />
      <path
         d="m 12.42229,68.875776 q 0,0.460377 -0.12985,0.845991 -0.12985,0.38168 -0.37381,0.657119 -0.24396,0.271504 -0.594161,0.424963 -0.350201,0.149524 -0.794838,0.149524 -0.424963,0 -0.7633589,-0.12985 -0.3344615,-0.133785 -0.5705519,-0.389549 -0.2321557,-0.255765 -0.3580706,-0.63351 -0.1219801,-0.377745 -0.1219801,-0.8696 0,-0.460376 0.1298498,-0.838121 0.1298498,-0.381679 0.3738099,-0.653184 0.2439602,-0.275438 0.594161,-0.424962 0.3502008,-0.153459 0.7948378,-0.153459 0.424963,0 0.759424,0.133784 0.338397,0.12985 0.570552,0.385615 0.236091,0.25183 0.358071,0.629574 0.125915,0.377745 0.125915,0.865665 z m -0.700402,0.03148 q 0,-0.36594 -0.08263,-0.637444 -0.0787,-0.275439 -0.228221,-0.456442 -0.149524,-0.184937 -0.365941,-0.275438 -0.212481,-0.09444 -0.476115,-0.09444 -0.306918,0 -0.527269,0.12198 -0.2164163,0.118046 -0.3580705,0.318723 -0.1377195,0.200676 -0.2046118,0.468246 -0.062957,0.263634 -0.062957,0.554812 0,0.36594 0.078697,0.641379 0.082632,0.275439 0.2321556,0.460377 0.149524,0.181002 0.3620053,0.275439 0.212482,0.0905 0.480051,0.0905 0.306917,0 0.523334,-0.118045 0.220351,-0.12198 0.35807,-0.322657 0.141654,-0.200677 0.204612,-0.464311 0.06689,-0.26757 0.06689,-0.562683 z"
         style="font-style:normal;font-variant:normal;font-weight:normal;font-stretch:normal;font-family:Consolas;-inkscape-font-specification:Consolas;fill:#da0000;fill-opacity:1;stroke-width:0.20146385"
         id="path891" />
      <path
         d="m 16.239085,70.882545 v -2.83702 q 0,-0.184938 -0.01574,-0.302983 -0.0118,-0.118045 -0.04328,-0.184937 -0.02754,-0.07083 -0.07476,-0.09837 -0.04328,-0.02754 -0.110176,-0.02754 -0.0787,0 -0.145589,0.04722 -0.06689,0.04722 -0.145589,0.153459 -0.07476,0.10624 -0.169198,0.283308 -0.0905,0.173133 -0.216416,0.428898 v 2.537972 h -0.62564 v -2.762258 q 0,-0.216416 -0.01574,-0.350201 -0.0118,-0.133784 -0.04328,-0.208546 -0.02754,-0.07476 -0.07476,-0.102306 -0.04722,-0.02754 -0.11411,-0.02754 -0.07083,0 -0.133785,0.03935 -0.06296,0.03935 -0.141654,0.141654 -0.07476,0.102306 -0.169198,0.279374 -0.09444,0.177068 -0.224286,0.452507 v 2.537972 H 13.1463 v -3.95058 h 0.523334 l 0.03148,0.751555 q 0.102306,-0.224286 0.196742,-0.38168 0.09837,-0.157394 0.200677,-0.25183 0.102306,-0.09837 0.216416,-0.141654 0.118045,-0.04722 0.2597,-0.04722 0.318722,0 0.483985,0.208546 0.165263,0.208547 0.165263,0.645314 0.09444,-0.204611 0.184938,-0.362005 0.0905,-0.161329 0.192807,-0.267569 0.106241,-0.110176 0.232156,-0.165264 0.125915,-0.05902 0.291178,-0.05902 0.743685,0 0.743685,1.145039 v 2.876368 z"
         style="font-style:normal;font-variant:normal;font-weight:normal;font-stretch:normal;font-family:Consolas;-inkscape-font-specification:Consolas;fill:#da0000;fill-opacity:1;stroke-width:0.20146385"
         id="path893" />
      <path
         d="m 19.205956,67.498582 h -1.168648 v -0.566617 h 1.86118 v 3.380029 h 1.176518 v 0.570551 h -3.167547 v -0.570551 h 1.298497 z m 0.240025,-2.223185 q 0.114111,0 0.212482,0.04328 0.09837,0.03935 0.169198,0.11411 0.07476,0.07476 0.11411,0.173134 0.04328,0.09444 0.04328,0.208546 0,0.110176 -0.04328,0.208547 -0.03935,0.09837 -0.11411,0.173133 -0.07083,0.07476 -0.169198,0.118045 -0.09837,0.03935 -0.212482,0.03935 -0.11411,0 -0.212481,-0.03935 -0.09837,-0.04328 -0.173133,-0.118045 -0.07083,-0.07476 -0.11411,-0.173133 -0.03935,-0.09837 -0.03935,-0.208547 0,-0.11411 0.03935,-0.208546 0.04328,-0.09837 0.11411,-0.173134 0.07476,-0.07476 0.173133,-0.11411 0.09837,-0.04328 0.212481,-0.04328 z"
         style="font-style:normal;font-variant:normal;font-weight:normal;font-stretch:normal;font-family:Consolas;-inkscape-font-specification:Consolas;fill:#da0000;fill-opacity:1;stroke-width:0.20146385"
         id="path895" />
      <path
         d="m 25.367918,70.736956 q -0.267569,0.102306 -0.550878,0.149524 -0.279374,0.05115 -0.578421,0.05115 -0.936493,0 -1.444087,-0.507594 -0.50366,-0.507595 -0.50366,-1.483435 0,-0.468246 0.145589,-0.849926 0.145589,-0.38168 0.409224,-0.653184 0.263634,-0.271504 0.629574,-0.417093 0.365941,-0.149524 0.806643,-0.149524 0.306917,0 0.574487,0.04328 0.267569,0.04328 0.511529,0.141655 v 0.653183 q -0.255765,-0.133784 -0.523334,-0.192807 -0.263634,-0.06296 -0.546943,-0.06296 -0.263634,0 -0.499725,0.102306 -0.232155,0.09837 -0.409223,0.287243 -0.177068,0.188872 -0.279374,0.460376 -0.102306,0.271504 -0.102306,0.613836 0,0.716141 0.346266,1.074211 0.350201,0.354136 0.967971,0.354136 0.279374,0 0.539073,-0.06296 0.263635,-0.06296 0.507595,-0.188872 z"
         style="font-style:normal;font-variant:normal;font-weight:normal;font-stretch:normal;font-family:Consolas;-inkscape-font-specification:Consolas;fill:#da0000;fill-opacity:1;stroke-width:0.20146385"
         id="path897" />
      <path
         d="m 31.337071,66.931965 h 0.62564 l 0.01967,0.727946 q 0.350201,-0.421028 0.688597,-0.609901 0.342331,-0.188872 0.688598,-0.188872 0.613835,0 0.928622,0.397419 0.318722,0.397419 0.295113,1.180452 h -0.692532 q 0.01181,-0.519399 -0.153459,-0.751555 -0.161328,-0.23609 -0.476116,-0.23609 -0.137719,0 -0.279373,0.05115 -0.13772,0.04722 -0.287244,0.157394 -0.145589,0.10624 -0.310852,0.275438 -0.165263,0.169199 -0.354136,0.409224 v 2.537972 h -0.692532 z"
         style="font-style:normal;font-variant:normal;font-weight:normal;font-stretch:normal;font-family:Consolas;-inkscape-font-specification:Consolas;fill:#da0000;fill-opacity:1;stroke-width:0.20146385"
         id="path899" />
      <path
         d="m 38.950989,68.698709 q 0,0.145589 -0.0039,0.24396 -0.0039,0.09837 -0.0118,0.184937 h -2.774063 q 0,0.605966 0.338396,0.932558 0.338397,0.322657 0.975841,0.322657 0.173133,0 0.346266,-0.01181 0.173133,-0.01574 0.334461,-0.03935 0.161329,-0.02361 0.306918,-0.05115 0.149524,-0.03148 0.275439,-0.06689 v 0.562683 q -0.279374,0.0787 -0.63351,0.125915 -0.3502,0.05115 -0.727945,0.05115 -0.507595,0 -0.873535,-0.13772 -0.36594,-0.137719 -0.602031,-0.397419 -0.232155,-0.263634 -0.346266,-0.641379 -0.110175,-0.381679 -0.110175,-0.86173 0,-0.417093 0.118045,-0.786968 0.12198,-0.37381 0.350201,-0.653184 0.232156,-0.283309 0.566617,-0.448572 0.334462,-0.165263 0.759424,-0.165263 0.413159,0 0.731881,0.12985 0.318722,0.129849 0.535138,0.369875 0.220351,0.23609 0.330527,0.578421 0.11411,0.338397 0.11411,0.759425 z m -0.712206,-0.09837 q 0.01181,-0.263635 -0.05115,-0.480051 -0.06296,-0.220351 -0.196742,-0.377745 -0.12985,-0.157393 -0.326592,-0.24396 -0.196742,-0.0905 -0.456441,-0.0905 -0.224286,0 -0.409224,0.08657 -0.184937,0.08657 -0.318722,0.24396 -0.133785,0.157394 -0.216416,0.377745 -0.08263,0.220351 -0.102306,0.483986 z"
         style="font-style:normal;font-variant:normal;font-weight:normal;font-stretch:normal;font-family:Consolas;-inkscape-font-specification:Consolas;fill:#da0000;fill-opacity:1;stroke-width:0.20146385"
         id="path901" />
      <path
         d="m 39.852067,68.989887 q 0,-0.50366 0.137719,-0.893209 0.137719,-0.393484 0.389549,-0.661053 0.255765,-0.271504 0.609901,-0.409224 0.35807,-0.141654 0.794838,-0.141654 0.188872,0 0.369875,0.02361 0.184937,0.02361 0.362005,0.07476 v -1.660503 h 0.688597 v 5.55993 h -0.613835 l -0.02361,-0.747619 q -0.287243,0.417093 -0.621705,0.61777 -0.334461,0.200677 -0.724011,0.200677 -0.338396,0 -0.598096,-0.141655 -0.255764,-0.141654 -0.428897,-0.397419 -0.169198,-0.259699 -0.255765,-0.621705 -0.08657,-0.362005 -0.08657,-0.802707 z m 0.700401,-0.04328 q 0,0.716141 0.208547,1.070276 0.212481,0.350201 0.598096,0.350201 0.259699,0 0.546943,-0.232155 0.291178,-0.232156 0.6099,-0.688598 v -1.833636 q -0.169198,-0.0787 -0.37381,-0.118045 -0.204612,-0.04328 -0.405289,-0.04328 -0.558747,0 -0.873534,0.362005 -0.310853,0.362006 -0.310853,1.133235 z"
         style="font-style:normal;font-variant:normal;font-weight:normal;font-stretch:normal;font-family:Consolas;-inkscape-font-specification:Consolas;fill:#da0000;fill-opacity:1;stroke-width:0.20146385"
         id="path903" />
      <path
         d="m 45.836962,67.498582 h -1.168647 v -0.566617 h 1.861179 v 3.380029 h 1.176518 v 0.570551 h -3.167547 v -0.570551 h 1.298497 z m 0.240026,-2.223185 q 0.11411,0 0.212481,0.04328 0.09837,0.03935 0.169198,0.11411 0.07476,0.07476 0.114111,0.173134 0.04328,0.09444 0.04328,0.208546 0,0.110176 -0.04328,0.208547 -0.03935,0.09837 -0.114111,0.173133 -0.07083,0.07476 -0.169198,0.118045 -0.09837,0.03935 -0.212481,0.03935 -0.114111,0 -0.212482,-0.03935 -0.09837,-0.04328 -0.173133,-0.118045 -0.07083,-0.07476 -0.11411,-0.173133 -0.03935,-0.09837 -0.03935,-0.208547 0,-0.11411 0.03935,-0.208546 0.04328,-0.09837 0.11411,-0.173134 0.07476,-0.07476 0.173133,-0.11411 0.09837,-0.04328 0.212482,-0.04328 z"
         style="font-style:normal;font-variant:normal;font-weight:normal;font-stretch:normal;font-family:Consolas;-inkscape-font-specification:Consolas;fill:#da0000;fill-opacity:1;stroke-width:0.20146385"
         id="path905" />
      <path
         d="m 52.057945,69.804399 q 0,0.208547 -0.07083,0.37381 -0.07083,0.165263 -0.192807,0.295113 -0.121981,0.125915 -0.283309,0.216416 -0.161329,0.0905 -0.346266,0.149524 -0.181003,0.05902 -0.37381,0.08657 -0.192807,0.02754 -0.377745,0.02754 -0.401353,0 -0.73975,-0.03541 -0.334461,-0.03541 -0.657118,-0.11411 v -0.629575 q 0.346266,0.09837 0.688597,0.149524 0.342331,0.05115 0.680727,0.05115 0.491856,0 0.727946,-0.133785 0.23609,-0.133784 0.23609,-0.381679 0,-0.106241 -0.03935,-0.188873 -0.03541,-0.08657 -0.133785,-0.161328 -0.09837,-0.0787 -0.306917,-0.161329 -0.204612,-0.08263 -0.562682,-0.188872 -0.26757,-0.0787 -0.49579,-0.177068 -0.224286,-0.102306 -0.38955,-0.240025 -0.165263,-0.13772 -0.259699,-0.322657 -0.09444,-0.184938 -0.09444,-0.436767 0,-0.165264 0.07476,-0.362006 0.0787,-0.196742 0.263634,-0.36594 0.184938,-0.169198 0.499725,-0.279374 0.314787,-0.11411 0.786968,-0.11411 0.232156,0 0.515464,0.02754 0.283309,0.02361 0.590226,0.08657 v 0.609901 q -0.322657,-0.0787 -0.613835,-0.114111 -0.287243,-0.03935 -0.499725,-0.03935 -0.255764,0 -0.432832,0.03935 -0.173133,0.03935 -0.283309,0.110176 -0.10624,0.06689 -0.153459,0.161328 -0.04722,0.0905 -0.04722,0.196742 0,0.106241 0.03935,0.192808 0.04328,0.08657 0.153459,0.169198 0.11411,0.0787 0.314787,0.161328 0.200677,0.0787 0.523334,0.173133 0.350201,0.102306 0.590226,0.216416 0.240025,0.110176 0.389549,0.247895 0.149524,0.13772 0.212482,0.310853 0.06689,0.173133 0.06689,0.393484 z"
         style="font-style:normal;font-variant:normal;font-weight:normal;font-stretch:normal;font-family:Consolas;-inkscape-font-specification:Consolas;fill:#da0000;fill-opacity:1;stroke-width:0.20146385"
         id="path907" />
      <path
         d="m 57.606072,68.989887 q 0,-0.424963 0.110176,-0.806643 0.11411,-0.381679 0.346266,-0.668923 0.23609,-0.291178 0.60203,-0.460376 0.365941,-0.169198 0.873535,-0.169198 0.200677,0 0.397419,0.03148 0.196742,0.03148 0.417093,0.09837 l 0.605966,-0.153459 v 5.634692 h -0.688598 v -1.491304 l 0.03541,-0.845991 q -0.558747,0.794838 -1.329976,0.794838 -0.346266,0 -0.602031,-0.141655 -0.255765,-0.141654 -0.428898,-0.401353 -0.169198,-0.2597 -0.255764,-0.621705 -0.08263,-0.362006 -0.08263,-0.798773 z m 0.700402,-0.04328 q 0,0.330526 0.04722,0.594161 0.05115,0.263634 0.149524,0.448572 0.102306,0.181002 0.25183,0.279373 0.153458,0.09837 0.35807,0.09837 0.2597,0 0.546943,-0.232155 0.291178,-0.232156 0.6099,-0.688598 v -1.833636 q -0.157393,-0.07476 -0.35807,-0.12198 -0.196742,-0.04722 -0.421028,-0.04722 -0.578422,0 -0.881404,0.38168 -0.302983,0.381679 -0.302983,1.12143 z"
         style="font-style:normal;font-variant:normal;font-weight:normal;font-stretch:normal;font-family:Consolas;-inkscape-font-specification:Consolas;fill:#da0000;fill-opacity:1;stroke-width:0.20146385"
         id="path909" />
      <path
         d="M 65.420665,70.882545 H 64.80683 l -0.02361,-0.637444 q -0.177068,0.204612 -0.338396,0.342331 -0.157394,0.133785 -0.314788,0.216417 -0.157393,0.08263 -0.318722,0.11411 -0.157394,0.03541 -0.334461,0.03541 -0.609901,0 -0.920753,-0.358071 -0.310853,-0.35807 -0.310853,-1.082081 v -2.581256 h 0.684663 v 2.526168 q 0,0.908948 0.684662,0.908948 0.125915,0 0.24396,-0.03541 0.12198,-0.03935 0.25183,-0.12985 0.133785,-0.09444 0.283309,-0.25183 0.153458,-0.157394 0.342331,-0.397419 v -2.620604 h 0.684662 z"
         style="font-style:normal;font-variant:normal;font-weight:normal;font-stretch:normal;font-family:Consolas;-inkscape-font-specification:Consolas;fill:#da0000;fill-opacity:1;stroke-width:0.20146385"
         id="path911" />
      <path
         d="m 70.020497,68.698709 q 0,0.145589 -0.0039,0.24396 -0.0039,0.09837 -0.0118,0.184937 h -2.774063 q 0,0.605966 0.338396,0.932558 0.338396,0.322657 0.97584,0.322657 0.173133,0 0.346267,-0.01181 0.173133,-0.01574 0.334461,-0.03935 0.161328,-0.02361 0.306918,-0.05115 0.149524,-0.03148 0.275438,-0.06689 v 0.562683 q -0.279373,0.0787 -0.633509,0.125915 -0.350201,0.05115 -0.727946,0.05115 -0.507594,0 -0.873534,-0.13772 -0.365941,-0.137719 -0.602031,-0.397419 -0.232156,-0.263634 -0.346266,-0.641379 -0.110176,-0.381679 -0.110176,-0.86173 0,-0.417093 0.118046,-0.786968 0.12198,-0.37381 0.350201,-0.653184 0.232155,-0.283309 0.566617,-0.448572 0.334461,-0.165263 0.759424,-0.165263 0.413158,0 0.73188,0.12985 0.318723,0.129849 0.535139,0.369875 0.220351,0.23609 0.330527,0.578421 0.11411,0.338397 0.11411,0.759425 z m -0.712206,-0.09837 q 0.0118,-0.263635 -0.05115,-0.480051 -0.06296,-0.220351 -0.196742,-0.377745 -0.12985,-0.157393 -0.326592,-0.24396 -0.196742,-0.0905 -0.456442,-0.0905 -0.224286,0 -0.409223,0.08657 -0.184938,0.08657 -0.318722,0.24396 -0.133785,0.157394 -0.216417,0.377745 -0.08263,0.220351 -0.102305,0.483986 z"
         style="font-style:normal;font-variant:normal;font-weight:normal;font-stretch:normal;font-family:Consolas;-inkscape-font-specification:Consolas;fill:#da0000;fill-opacity:1;stroke-width:0.20146385"
         id="path913" />
      <path
         d="m 74.297668,70.882545 h -0.613835 l -0.02361,-0.637444 q -0.177068,0.204612 -0.338397,0.342331 -0.157393,0.133785 -0.314787,0.216417 -0.157394,0.08263 -0.318722,0.11411 -0.157394,0.03541 -0.334462,0.03541 -0.6099,0 -0.920752,-0.358071 -0.310853,-0.35807 -0.310853,-1.082081 v -2.581256 h 0.684662 v 2.526168 q 0,0.908948 0.684663,0.908948 0.125915,0 0.24396,-0.03541 0.12198,-0.03935 0.25183,-0.12985 0.133784,-0.09444 0.283308,-0.25183 0.153459,-0.157394 0.342332,-0.397419 v -2.620604 h 0.684662 z"
         style="font-style:normal;font-variant:normal;font-weight:normal;font-stretch:normal;font-family:Consolas;-inkscape-font-specification:Consolas;fill:#da0000;fill-opacity:1;stroke-width:0.20146385"
         id="path915" />
      <path
         d="m 78.897496,68.698709 q 0,0.145589 -0.0039,0.24396 -0.0039,0.09837 -0.01181,0.184937 h -2.774063 q 0,0.605966 0.338397,0.932558 0.338396,0.322657 0.97584,0.322657 0.173133,0 0.346266,-0.01181 0.173133,-0.01574 0.334462,-0.03935 0.161328,-0.02361 0.306918,-0.05115 0.149523,-0.03148 0.275438,-0.06689 v 0.562683 q -0.279373,0.0787 -0.633509,0.125915 -0.350201,0.05115 -0.727946,0.05115 -0.507594,0 -0.873534,-0.13772 -0.365941,-0.137719 -0.602031,-0.397419 -0.232156,-0.263634 -0.346266,-0.641379 -0.110176,-0.381679 -0.110176,-0.86173 0,-0.417093 0.118046,-0.786968 0.12198,-0.37381 0.3502,-0.653184 0.232156,-0.283309 0.566618,-0.448572 0.334461,-0.165263 0.759424,-0.165263 0.413158,0 0.73188,0.12985 0.318723,0.129849 0.535139,0.369875 0.220351,0.23609 0.330526,0.578421 0.114111,0.338397 0.114111,0.759425 z m -0.712206,-0.09837 q 0.0118,-0.263635 -0.05115,-0.480051 -0.06296,-0.220351 -0.196742,-0.377745 -0.12985,-0.157393 -0.326592,-0.24396 -0.196742,-0.0905 -0.456442,-0.0905 -0.224286,0 -0.409223,0.08657 -0.184938,0.08657 -0.318722,0.24396 -0.133785,0.157394 -0.216417,0.377745 -0.08263,0.220351 -0.102306,0.483986 z"
         style="font-style:normal;font-variant:normal;font-weight:normal;font-stretch:normal;font-family:Consolas;-inkscape-font-specification:Consolas;fill:#da0000;fill-opacity:1;stroke-width:0.20146385"
         id="path917" />
    </g>
  </g>
</svg>
